<?xml version="1.0" standalone="no"?>
<!DOCTYPE svg PUBLIC "-//W3C//DTD SVG 20010904//EN"
 "http://www.w3.org/TR/2001/REC-SVG-20010904/DTD/svg10.dtd">
<svg version="1.0" xmlns="http://www.w3.org/2000/svg"
 width="512.000000pt" height="512.000000pt" viewBox="0 0 512.000000 512.000000"
 preserveAspectRatio="xMidYMid meet">
<metadata>
Created by potrace 1.11, written by Peter Selinger 2001-2013
</metadata>
<g transform="translate(0.000000,512.000000) scale(0.100000,-0.100000)"
fill="#000000" stroke="none">
<path d="M280 2560 c0 -1245 2 -1464 14 -1476 8 -7 16 -19 18 -26 4 -10 9 -10
23 2 11 9 16 10 11 3 -9 -17 6 -17 24 0 12 10 12 9 2 -4 -6 -9 -10 -18 -7 -21
3 -2 -2 -5 -10 -5 -8 0 -15 4 -15 8 0 5 -7 6 -16 2 -14 -5 -13 -8 6 -18 19
-10 20 -13 6 -18 -12 -5 -15 -3 -10 6 4 6 4 9 -1 5 -4 -4 -15 -2 -23 5 -13 11
-14 9 -1 -10 8 -13 18 -23 24 -23 5 0 3 -5 -5 -11 -12 -8 -10 -9 9 -4 16 5 21
4 16 -4 -8 -14 13 -43 26 -35 5 3 7 10 3 15 -3 5 -11 6 -17 2 -7 -4 -6 0 2 10
7 9 19 17 25 17 8 0 8 -2 -1 -8 -8 -5 -8 -12 3 -26 8 -11 14 -15 14 -9 0 6 8
10 18 8 10 -1 16 -9 14 -21 -2 -15 -1 -16 7 -4 5 8 7 18 5 22 -9 15 61 3 74
-12 11 -13 11 -13 6 1 -4 12 1 16 18 15 13 0 26 -5 30 -11 5 -6 8 -4 8 5 0 13
1 13 10 0 6 -10 10 -11 10 -2 0 6 4 12 10 12 5 0 7 -8 4 -17 -5 -17 -5 -17 5
-1 9 13 25 16 87 14 52 -1 78 -6 85 -17 9 -12 10 -12 6 1 -6 23 21 46 36 31 9
-10 9 -12 -2 -9 -7 2 -16 -3 -18 -9 -6 -16 13 -17 23 -2 4 8 9 7 14 -2 7 -10
11 -10 24 0 9 7 31 11 50 9 26 -3 33 -1 28 11 -3 9 -1 12 6 7 7 -4 12 -2 12 4
0 6 5 8 10 5 8 -5 8 -11 0 -20 -8 -10 -8 -15 2 -21 7 -4 10 -4 6 1 -4 4 -3 14
3 21 7 8 7 14 -1 19 -5 3 -10 14 -10 23 0 13 2 14 9 4 7 -11 9 -10 14 3 4 9 3
14 -2 11 -5 -3 -8 5 -8 19 0 14 3 22 7 20 5 -3 7 3 5 12 -1 10 3 25 9 33 10
13 9 13 -6 1 -19 -15 -25 -2 -7 16 18 18 -29 45 -55 32 -19 -9 -19 -9 -4 4 14
11 15 16 5 27 -7 7 0 5 16 -5 27 -17 31 -15 28 18 -1 9 3 17 9 17 6 0 2 9 -9
21 -15 16 -23 19 -38 10 -15 -7 -20 -7 -20 3 0 14 45 15 67 1 10 -6 11 -4 4 6
-12 20 -16 51 -5 45 5 -4 8 2 6 11 -1 10 3 25 9 33 10 13 9 13 -6 1 -21 -15
-23 -9 -7 21 6 11 7 18 2 15 -6 -4 -10 10 -11 29 -1 19 2 33 7 30 4 -3 8 1 8
9 0 8 -4 12 -9 9 -11 -7 -10 3 3 28 8 15 8 19 0 14 -7 -5 -11 3 -11 19 0 14 4
24 9 21 5 -4 8 2 6 11 -1 10 3 25 9 33 10 13 9 13 -6 1 -21 -15 -23 -9 -7 21
6 11 7 18 2 15 -6 -4 -10 10 -11 29 -1 19 2 33 7 30 4 -3 8 1 8 9 0 8 -4 12
-9 9 -11 -7 -10 3 3 28 8 15 8 19 0 14 -7 -5 -11 3 -11 19 0 14 4 24 9 21 5
-4 8 2 6 11 -1 10 3 25 9 33 10 13 9 13 -8 0 -18 -14 -19 -13 -13 2 3 10 1 20
-5 24 -7 4 -8 3 -4 -4 4 -7 2 -12 -4 -12 -7 0 -9 8 -4 22 6 21 6 22 -12 8 -18
-14 -18 -14 -4 4 8 10 15 24 16 30 0 6 2 17 2 24 1 7 6 11 11 7 5 -3 12 -1 15
4 13 20 -14 21 -34 1 -11 -11 -20 -16 -20 -11 0 6 5 13 11 16 6 4 8 14 5 22
-4 9 -2 11 6 7 19 -12 57 -14 63 -3 3 5 -2 6 -11 2 -13 -5 -15 -3 -9 7 6 9 4
11 -5 5 -9 -5 -11 -4 -6 3 4 7 18 9 33 6 18 -5 24 -3 19 4 -5 8 -1 10 10 5 10
-4 15 -2 11 3 -3 6 8 10 27 10 29 -1 33 -4 31 -22 -1 -16 2 -21 13 -16 11 4
13 2 7 -9 -8 -12 -6 -12 9 0 22 18 66 24 62 8 -1 -7 -1 -9 1 -4 3 4 11 7 19 7
8 0 14 4 14 9 0 5 -8 8 -17 7 -10 0 -18 7 -19 17 -1 12 0 13 3 2 5 -18 23 -20
23 -3 0 6 6 3 14 -7 8 -11 12 -24 9 -29 -4 -5 0 -6 7 -1 7 4 16 2 22 -6 8 -12
9 -11 6 1 -3 8 4 23 15 33 19 19 19 18 12 -3 -7 -21 -6 -21 18 -5 25 16 25 16
20 -7 -4 -18 -3 -20 6 -8 9 13 15 8 13 -11 -1 -3 6 -6 13 -6 12 0 12 3 3 15
-7 8 -13 21 -15 31 -1 11 3 9 16 -7 15 -21 20 -22 44 -11 14 6 24 16 21 20 -3
5 0 9 5 9 6 0 11 -6 11 -12 0 -9 4 -8 11 2 9 13 10 13 6 0 -2 -8 -10 -14 -16
-12 -6 1 -14 -5 -17 -13 -3 -8 -11 -12 -18 -8 -6 3 -7 2 -3 -2 14 -16 36 -14
30 3 -4 9 -2 13 4 9 16 -10 44 3 37 17 -3 6 1 3 9 -6 17 -21 25 -23 23 -5 0 6
3 13 8 14 5 1 13 7 17 15 6 9 9 9 9 1 0 -6 -4 -14 -9 -18 -6 -3 -9 -14 -8 -25
1 -19 12 -17 12 3 0 5 6 12 14 15 9 3 11 0 6 -9 -5 -8 -5 -11 0 -7 4 4 15 2
23 -5 13 -10 14 -9 8 1 -6 9 -1 11 19 8 23 -4 25 -3 14 10 -6 8 -9 17 -5 21 3
3 6 1 6 -5 0 -7 10 -12 21 -12 19 0 20 -2 8 -17 -12 -16 -12 -17 2 -6 9 7 20
9 25 5 4 -4 2 1 -5 11 -14 18 -9 32 12 32 7 0 12 5 12 10 0 6 -3 9 -6 8 -3 -1
-6 5 -6 13 0 10 7 8 25 -8 l25 -23 -6 23 c-3 12 -3 22 -1 22 8 0 22 -45 17
-53 -3 -4 -11 -3 -19 4 -11 9 -15 8 -20 -5 -5 -14 -9 -14 -23 -4 -13 10 -14
10 -4 -2 14 -16 46 -23 37 -9 -3 6 5 8 20 5 15 -3 24 -1 21 5 -4 5 -1 9 4 9 6
0 11 -6 11 -12 0 -9 4 -8 10 2 5 8 10 11 10 6 0 -5 7 -3 15 4 12 10 13 15 3
28 -12 13 -10 14 9 1 15 -9 19 -17 13 -23 -6 -6 -10 -15 -10 -20 0 -6 5 -4 10
4 5 8 21 15 36 15 18 1 28 7 30 18 2 13 -1 15 -9 9 -19 -15 -46 -10 -64 12
-17 20 -17 20 0 7 9 -7 17 -10 17 -5 0 4 5 3 12 -4 13 -13 29 -16 26 -4 -3 6
7 14 15 11 26 -8 47 -4 72 15 22 17 36 21 53 15 12 -5 22 -5 22 -1 0 4 4 1 9
-6 6 -11 9 -9 14 7 5 21 -11 25 -26 6 -5 -6 -7 -4 -4 5 2 8 9 15 16 15 6 0 15
6 20 13 7 11 9 10 14 -3 5 -10 3 -14 -5 -9 -7 4 -8 3 -4 -4 4 -6 13 -9 21 -6
8 4 12 10 9 16 -3 5 4 16 16 25 12 8 19 21 16 29 -3 8 0 11 8 8 7 -3 20 2 29
10 13 14 16 14 21 0 4 -10 2 -13 -6 -8 -7 4 -8 3 -4 -4 4 -8 2 -10 -7 -6 -21
8 -28 -8 -11 -24 9 -8 14 -9 14 -2 0 6 5 8 12 4 7 -4 8 -3 4 4 -4 6 2 17 14
24 11 7 20 17 20 22 0 4 -6 3 -13 -3 -10 -8 -14 -7 -14 4 0 8 3 13 5 10 3 -2
13 4 22 15 15 17 19 18 23 5 4 -8 13 -12 22 -9 8 3 13 10 10 15 -8 12 17 49
32 49 7 0 13 -6 13 -12 0 -7 7 0 15 16 17 33 19 50 5 41 -6 -3 -10 -1 -10 4 0
16 11 13 32 -6 18 -16 18 -16 12 1 -6 16 -4 17 17 7 22 -11 23 -11 5 3 -10 9
-23 13 -27 10 -5 -3 -9 0 -9 5 0 10 29 16 53 12 5 -1 6 3 2 9 -3 6 -10 8 -15
5 -5 -3 -12 0 -16 6 -4 8 -3 9 4 5 11 -7 16 5 13 31 -1 7 8 17 19 23 18 10 19
14 8 28 -8 10 -9 13 -1 9 17 -10 34 24 22 45 -7 13 -4 15 21 13 24 -2 28 0 21
14 -13 25 -3 43 19 31 17 -9 18 -8 4 20 -11 21 -12 34 -5 47 6 10 11 12 11 6
0 -7 5 -13 11 -13 5 0 7 5 3 11 -3 6 0 16 7 21 11 8 10 9 -4 4 -10 -3 -16 -2
-12 3 3 5 1 11 -5 13 -6 2 0 9 12 17 20 13 22 12 11 -1 -10 -12 -10 -15 2 -15
8 0 13 3 10 5 -3 3 1 12 8 20 9 13 9 14 0 8 -8 -4 -13 -2 -13 5 0 7 -8 5 -20
-6 -11 -10 -20 -15 -20 -12 0 3 9 15 21 26 13 12 17 21 10 26 -6 3 -11 14 -11
23 0 15 2 15 11 2 9 -12 10 -11 6 7 -3 13 0 26 5 30 7 4 8 1 3 -6 -6 -10 -3
-11 14 -2 24 13 28 23 6 15 -11 -5 -13 -2 -9 10 3 9 11 16 17 16 19 0 -1 12
-35 21 -32 8 -31 8 7 4 38 -4 39 -4 15 10 -14 7 -29 11 -34 8 -5 -4 -6 -1 -3
5 8 12 25 11 47 -3 13 -8 13 -7 1 8 -11 14 -11 20 -1 32 7 9 8 15 2 15 -5 0
-13 -7 -16 -16 -4 -9 -9 -14 -12 -11 -7 6 14 48 30 60 7 6 4 7 -6 3 -10 -3
-20 -1 -23 5 -4 5 -12 6 -18 2 -7 -4 -6 0 2 10 7 9 10 17 6 17 -4 0 -2 6 4 13
6 8 12 22 14 33 1 10 6 25 11 32 5 8 3 12 -6 10 -7 -2 -12 3 -10 10 1 8 -1 12
-5 10 -5 -3 -19 7 -33 20 l-25 25 35 -18 c25 -13 32 -14 24 -4 -5 8 -9 24 -8
36 0 12 -2 20 -6 18 -4 -3 -10 2 -14 10 -3 8 0 15 6 15 6 0 8 3 5 6 -4 4 -13
1 -21 -5 -12 -10 -14 -9 -9 8 3 12 9 19 13 16 5 -3 11 -1 14 4 4 5 -5 8 -19 7
-13 -2 -22 0 -20 5 3 4 0 11 -5 14 -8 5 -5 14 7 28 10 11 13 17 6 13 -15 -8
-33 21 -33 54 0 6 -5 10 -11 10 -8 0 -7 -5 1 -16 11 -12 11 -15 -1 -12 -9 2
-14 -5 -13 -19 1 -13 -2 -20 -6 -18 -9 6 -7 31 3 41 8 9 -12 36 -22 29 -4 -2
-8 2 -8 10 0 8 4 12 8 9 4 -2 9 -1 12 3 2 5 2 2 0 -5 -1 -8 2 -10 9 -6 7 4 8
3 4 -4 -5 -8 -2 -10 8 -6 14 5 14 8 1 21 -9 8 -13 18 -10 23 3 4 -2 11 -11 14
-23 9 -31 7 -14 -4 8 -5 11 -12 7 -17 -12 -12 -27 19 -16 33 12 15 -13 38 -27
24 -6 -6 -10 -3 -11 10 -1 12 3 17 11 14 8 -3 16 2 20 12 5 14 4 15 -8 5 -12
-10 -17 -9 -25 7 -6 11 -7 23 -3 27 4 3 0 5 -8 3 -8 -2 -14 3 -12 10 1 8 -2
11 -8 7 -7 -4 -3 -16 10 -32 19 -24 19 -50 -1 -37 -5 3 -7 10 -3 15 3 6 -5 19
-18 31 -12 11 -22 24 -20 29 1 5 -2 9 -8 9 -5 0 -10 8 -10 18 0 14 2 15 10 2
5 -8 10 -10 10 -4 0 6 -8 18 -17 25 -10 8 -14 9 -10 2 4 -6 3 -14 -3 -18 -5
-3 -10 1 -10 9 0 9 -5 16 -11 16 -8 0 -8 4 0 14 9 11 7 12 -13 9 -18 -4 -26 0
-31 16 -3 12 -11 21 -16 21 -6 0 -7 5 -4 10 4 6 3 9 -2 8 -13 -4 -54 28 -45
36 4 4 3 6 -3 5 -5 -2 -41 18 -80 43 -132 86 -279 141 -470 174 -22 4 -340 9
-707 11 l-668 4 0 -1461z m690 946 c0 -2 -7 -7 -16 -10 -8 -3 -12 -2 -9 4 6
10 25 14 25 6z m35 -4 c-3 -3 0 -11 6 -19 17 -20 5 -16 -14 5 -15 16 -15 19
-2 19 8 0 13 -3 10 -5z m40 0 c-3 -3 3 -15 12 -26 14 -15 14 -18 2 -8 -9 6
-20 8 -25 4 -5 -4 -6 -3 -2 2 4 5 3 14 -2 21 -7 8 -5 12 5 12 8 0 13 -3 10 -5z
m40 0 c-3 -3 0 -11 6 -19 17 -20 5 -16 -14 5 -15 16 -15 19 -2 19 8 0 13 -3
10 -5z m40 0 c-3 -3 3 -15 12 -26 14 -15 14 -18 2 -8 -9 6 -20 8 -25 4 -5 -4
-6 -3 -2 2 4 5 3 14 -2 21 -7 8 -5 12 5 12 8 0 13 -3 10 -5z m40 0 c-3 -3 0
-11 6 -19 17 -20 5 -16 -14 5 -15 16 -15 19 -2 19 8 0 13 -3 10 -5z m40 0 c-3
-3 3 -15 12 -26 14 -15 14 -18 2 -8 -9 6 -20 8 -25 4 -5 -4 -6 -3 -2 2 4 5 3
14 -2 21 -7 8 -5 12 5 12 8 0 13 -3 10 -5z m40 0 c-3 -3 0 -11 6 -19 17 -20 5
-16 -14 5 -15 16 -15 19 -2 19 8 0 13 -3 10 -5z m45 -6 c-7 -7 -13 -7 -20 0
-6 6 -3 10 10 10 13 0 16 -4 10 -10z m50 9 c0 -1 -10 -10 -22 -21 -14 -12 -18
-13 -10 -3 6 9 10 18 7 21 -3 2 2 5 10 5 8 0 15 -1 15 -2z m30 -10 c-5 -7 -9
-14 -7 -16 1 -2 0 -3 -2 -2 -2 2 -11 -3 -20 -9 -12 -10 -12 -7 2 8 9 11 15 23
12 26 -3 2 2 5 10 5 10 0 12 -4 5 -12z m50 10 c0 -1 -10 -10 -22 -21 -14 -12
-18 -13 -10 -3 6 9 10 18 7 21 -3 2 2 5 10 5 8 0 15 -1 15 -2z m30 -10 c-5 -7
-9 -14 -7 -16 1 -2 0 -3 -2 -2 -2 2 -11 -3 -20 -9 -12 -10 -12 -7 2 8 9 11 15
23 12 26 -3 2 2 5 10 5 10 0 12 -4 5 -12z m50 10 c0 -1 -10 -10 -22 -21 -14
-12 -18 -13 -10 -3 6 9 10 18 7 21 -3 2 2 5 10 5 8 0 15 -1 15 -2z m30 -10
c-5 -7 -9 -14 -7 -16 1 -2 0 -3 -2 -2 -2 2 -11 -3 -20 -9 -12 -10 -12 -7 2 8
9 11 15 23 12 26 -3 2 2 5 10 5 10 0 12 -4 5 -12z m34 6 c3 -5 -2 -15 -12 -22
-15 -12 -16 -12 -5 2 7 9 10 19 6 22 -3 4 -4 7 0 7 3 0 8 -4 11 -9z m901 -1
c3 -5 1 -10 -4 -10 -6 0 -11 5 -11 10 0 6 2 10 4 10 3 0 8 -4 11 -10z m-1484
-27 c13 -16 12 -17 -3 -4 -10 7 -18 15 -18 17 0 8 8 3 21 -13z m625 5 c4 -7 4
-10 -1 -6 -4 4 -15 2 -24 -5 -14 -11 -14 -10 -2 6 16 20 18 21 27 5z m-641
-36 c-3 -3 1 -12 8 -21 11 -14 10 -14 -6 -2 -9 8 -15 16 -12 19 3 3 -1 12 -8
21 -11 14 -10 14 6 2 9 -8 15 -16 12 -19z m158 4 c3 3 4 -2 3 -12 -3 -21 -21
-30 -31 -15 -4 7 1 8 12 4 16 -6 16 -4 -2 18 -11 13 -13 18 -4 11 9 -6 18 -9
22 -6z m65 -11 c-3 -3 -9 2 -12 12 -6 14 -5 15 5 6 7 -7 10 -15 7 -18z m110
16 c16 12 16 12 0 -6 -18 -19 -18 -19 -35 0 -17 18 -17 18 0 6 14 -11 20 -11
35 0z m85 -6 c-3 -9 -8 -14 -10 -11 -3 3 -2 9 2 15 9 16 15 13 8 -4z m72 -5
c-16 -18 -16 -20 -1 -26 20 -8 21 -21 2 -21 -8 0 -15 3 -14 6 0 3 -1 8 -2 11
-7 18 -7 39 0 35 5 -3 11 -1 15 5 3 5 9 10 12 10 3 0 -2 -9 -12 -20z m85 5
c-14 -17 -30 -20 -30 -4 0 5 4 8 9 4 5 -3 12 -1 16 5 3 5 9 10 12 10 3 0 0 -7
-7 -15z m-499 -22 c-12 -20 -14 -14 -5 12 4 9 9 14 11 11 3 -2 0 -13 -6 -23z
m189 21 c0 -8 -19 -13 -24 -6 -3 5 1 9 9 9 8 0 15 -2 15 -3z m130 0 c0 -8 -19
-13 -24 -6 -3 5 1 9 9 9 8 0 15 -2 15 -3z m45 -13 c3 -5 2 -12 -3 -15 -5 -3
-9 1 -9 9 0 17 3 19 12 6z m241 -6 c-1 -8 -5 -17 -8 -21 -5 -4 -4 16 1 34 3 9
9 -1 7 -13z m-396 -30 c0 -5 -5 -3 -10 5 -5 8 -10 20 -10 25 0 6 5 3 10 -5 5
-8 10 -19 10 -25z m60 6 c0 -4 -7 -8 -15 -8 -8 0 -12 4 -9 9 3 4 -2 8 -10 8
-8 0 -17 4 -21 10 -3 5 7 5 25 -1 16 -6 30 -14 30 -18z m390 23 c0 -8 -19 -13
-24 -6 -3 5 1 9 9 9 8 0 15 -2 15 -3z m-732 -30 c1 -1 -5 -7 -15 -15 -12 -10
-15 -10 -9 -1 4 7 2 20 -6 30 -12 16 -11 16 7 2 11 -8 21 -15 23 -16z m122 7
c0 -13 -29 -8 -34 5 -3 7 2 10 15 7 10 -3 19 -9 19 -12z m98 7 c-2 -3 5 -15
15 -25 9 -11 15 -23 12 -26 -3 -4 -2 -5 2 -2 12 9 12 36 1 29 -7 -5 -8 -2 -3
6 5 9 4 11 -3 6 -8 -5 -10 -1 -6 9 6 14 9 13 21 -5 11 -16 18 -18 28 -10 10 8
15 8 21 -1 4 -8 3 -9 -4 -5 -8 5 -10 2 -6 -8 6 -16 25 -23 23 -8 -4 21 3 23
21 7 11 -10 23 -15 27 -12 3 4 1 7 -6 7 -7 0 -9 5 -5 12 5 7 3 8 -6 3 -9 -5
-11 -4 -6 4 6 9 11 9 22 0 8 -6 14 -8 14 -3 0 5 5 2 11 -6 9 -13 10 -13 6 1
-3 9 -1 22 5 30 8 11 9 10 4 -3 -5 -18 7 -23 48 -18 10 1 15 -3 12 -8 -4 -6
-1 -14 5 -18 7 -4 9 -3 5 4 -13 21 13 22 28 1 15 -22 15 -22 13 -1 0 11 -5 18
-11 15 -5 -3 -6 -1 -2 6 6 8 12 9 20 2 7 -6 15 -8 19 -5 3 3 15 0 27 -6 12 -7
20 -8 16 -2 -3 5 8 12 24 14 17 3 30 1 30 -3 0 -11 26 -5 43 9 11 9 17 10 22
2 4 -6 2 -9 -3 -8 -6 2 -9 -1 -8 -7 1 -12 26 -16 26 -4 0 5 5 9 11 9 8 0 8 -5
-1 -15 -7 -8 -16 -12 -21 -9 -5 3 -9 1 -9 -4 0 -6 7 -13 16 -16 8 -3 13 -2 10
3 -13 20 27 21 41 1 8 -11 20 -20 27 -20 13 0 31 -27 28 -41 0 -3 5 -6 13 -6
11 0 10 5 -2 24 -10 14 -11 23 -4 23 6 0 11 -7 11 -16 0 -8 4 -13 8 -10 4 2 9
-6 10 -19 1 -17 -2 -23 -12 -19 -8 3 -16 2 -19 -3 -3 -4 7 -8 23 -8 21 -1 27
3 23 15 -4 12 -3 13 5 1 6 -8 8 -20 5 -28 -3 -7 2 -13 11 -13 10 0 13 -5 9
-17 -4 -11 -3 -14 5 -9 8 5 10 1 5 -10 -4 -12 -3 -15 5 -10 8 5 11 -2 8 -23
-2 -17 0 -31 4 -31 8 0 9 -10 10 -103 2 -156 -74 -293 -197 -355 -96 -49 -134
-55 -421 -60 -276 -4 -335 -1 -314 20 8 8 8 17 0 32 -10 18 -9 19 4 8 13 -10
18 -9 29 5 13 16 12 17 -3 4 -19 -14 -25 -2 -8 15 7 7 6 11 -5 12 -8 1 -22 3
-30 4 -20 2 -19 5 6 19 15 7 19 8 15 0 -5 -7 -1 -8 10 -4 11 4 13 8 6 11 -7 2
-12 8 -12 13 0 6 6 7 13 3 9 -6 8 -3 -1 8 -11 13 -11 21 -2 39 7 12 8 19 2 15
-5 -3 -9 5 -9 19 0 14 4 22 10 18 6 -3 7 -1 3 6 -5 8 -12 9 -20 2 -8 -7 -17
-6 -26 1 -13 8 -13 9 1 5 18 -6 44 29 29 38 -6 3 -10 11 -10 17 0 6 7 5 18 -3
15 -13 16 -12 3 4 -8 10 -20 16 -27 13 -9 -3 -11 0 -7 11 5 12 3 14 -8 8 -12
-8 -12 -6 0 8 7 9 19 17 25 17 6 0 5 -4 -3 -9 -11 -7 -9 -12 10 -22 22 -11 23
-11 10 4 -7 10 -10 17 -5 17 4 0 3 5 -4 12 -15 15 -16 31 0 22 7 -4 8 -3 4 4
-4 7 -1 12 6 12 10 0 10 2 -1 9 -7 5 -11 13 -7 19 3 6 2 13 -4 17 -5 3 -10 11
-10 17 0 6 7 5 18 -3 15 -13 16 -12 3 4 -8 10 -20 16 -27 13 -9 -3 -11 0 -7
11 5 12 3 14 -8 8 -12 -8 -12 -6 0 8 7 9 19 17 25 17 6 0 5 -4 -3 -9 -11 -7
-9 -12 10 -22 22 -11 23 -11 10 4 -7 10 -10 17 -5 17 4 0 3 5 -4 12 -15 15
-16 31 0 22 7 -4 8 -3 4 4 -4 7 -1 12 6 12 9 0 9 3 -2 10 -13 9 -13 11 0 20
10 6 11 10 3 10 -7 0 -13 5 -13 11 0 5 6 7 13 3 8 -6 8 -3 -1 9 -8 9 -10 22
-6 29 6 9 3 9 -9 -1 -10 -8 -20 -11 -24 -7 -3 3 -1 6 5 6 7 0 12 5 12 11 0 5
-5 7 -11 3 -8 -5 -8 -1 0 14 7 14 7 22 1 25 -6 3 -5 4 2 3 7 -2 12 -10 10 -20
-2 -10 4 -16 15 -16 14 0 15 2 5 9 -8 4 -13 11 -13 15 5 34 0 44 -21 40 -19
-4 -20 -3 -5 4 10 4 18 12 18 17 0 6 11 9 25 8 30 -2 31 5 2 17 -17 6 -18 9
-6 9 9 1 20 -4 23 -9 4 -6 10 -8 15 -5 5 3 12 0 16 -6 4 -7 3 -9 -4 -6 -6 5
-8 -1 -4 -15 l5 -22 9 23 c4 12 12 20 17 16 5 -3 12 -1 16 5 4 6 10 8 15 5 5
-3 11 -1 15 5 8 13 25 13 25 -1 0 -5 -4 -8 -9 -4 -5 3 -12 1 -16 -5 -4 -6 -10
-8 -14 -6 -3 3 -7 -4 -7 -15 0 -19 1 -20 14 -2 7 10 22 17 34 15 13 -2 18 0
13 7 -3 7 -3 11 2 10 20 -4 27 2 13 12 -10 7 -11 9 -2 7 8 -2 12 -6 10 -10z
m159 -10 c-3 -8 -6 -5 -6 6 -1 11 2 17 5 13 3 -3 4 -12 1 -19z m160 0 c-3 -8
-6 -5 -6 6 -1 11 2 17 5 13 3 -3 4 -12 1 -19z m-77 8 c0 -2 -7 -7 -16 -10 -8
-3 -12 -2 -9 4 6 10 25 14 25 6z m140 0 c0 -2 -7 -6 -15 -10 -8 -3 -15 -1 -15
4 0 6 7 10 15 10 8 0 15 -2 15 -4z m-643 -20 c0 -15 -21 -16 -34 -1 -4 4 -3 5
4 1 6 -3 14 -2 18 4 8 14 12 13 12 -4z m843 0 c0 -2 -7 -7 -16 -10 -8 -3 -12
-2 -9 4 6 10 25 14 25 6z m16 -25 c0 -12 -6 -17 -18 -13 -18 4 -18 5 -1 18 10
7 18 14 18 14 1 0 1 -8 1 -19z m754 -16 c14 -19 14 -19 -2 -6 -10 7 -18 18
-18 24 0 6 1 8 3 6 1 -2 9 -13 17 -24z m-1610 -10 c-5 -7 -7 -14 -4 -18 3 -3
-1 -4 -10 -3 -8 1 -19 6 -23 10 -4 4 -1 6 7 4 8 -1 14 2 13 8 -1 6 5 11 12 11
10 0 12 -4 5 -12z m1602 -23 c4 -12 -1 -18 -13 -18 -12 0 -15 4 -9 12 6 6 7
14 3 17 -3 4 -2 7 4 7 6 0 13 -8 15 -18z m-1629 -27 c-3 -9 -8 -14 -10 -11 -3
3 -2 9 2 15 9 16 15 13 8 -4z m28 -22 c13 -16 12 -17 -3 -4 -10 7 -18 15 -18
17 0 8 8 3 21 -13z m-5 -25 c3 -4 -1 -5 -10 -4 -8 1 -18 5 -22 8 -3 4 1 5 10
4 8 -1 18 -5 22 -8z m59 2 c-3 -5 -14 -8 -25 -7 -24 2 -18 12 9 14 12 1 19 -2
16 -7z m1603 -22 c15 -15 15 -28 1 -28 -5 0 -8 4 -5 9 7 11 -22 23 -36 14 -7
-3 -8 -1 -4 5 9 15 29 15 44 0z m-1602 -15 c-1 -19 -24 -39 -33 -29 -4 3 -1 6
5 6 7 0 12 5 12 11 0 5 -6 7 -12 4 -7 -4 -4 1 6 9 24 20 24 20 22 -1z m1629
-101 c-2 -9 -4 -21 -4 -27 -1 -5 -5 -4 -10 4 -5 8 -8 23 -6 33 2 10 0 18 -5
18 -4 0 -11 8 -14 17 -5 13 -1 12 17 -6 14 -12 24 -30 22 -39z m-52 30 c15
-16 15 -19 2 -19 -8 0 -13 3 -10 5 3 3 0 11 -6 19 -17 20 -5 16 14 -5z m-1616
-45 c0 -8 -6 -14 -14 -14 -9 0 -10 4 -2 14 6 7 12 13 14 13 1 0 2 -6 2 -13z
m-26 -34 c12 -16 12 -17 -2 -6 -9 7 -20 9 -24 5 -5 -4 -5 -1 -1 6 9 16 11 15
27 -5z m45 -2 c8 7 17 9 21 5 3 -3 1 -6 -7 -6 -9 0 -10 -3 -1 -14 9 -11 8 -15
-5 -20 -9 -4 -19 -4 -22 -1 -3 3 0 5 6 5 7 0 12 5 12 10 0 6 -5 9 -11 8 -6 -2
-13 3 -14 10 -2 7 -1 8 2 2 3 -8 9 -7 19 1z m1621 -13 c-3 -8 -6 -5 -6 6 -1
11 2 17 5 13 3 -3 4 -12 1 -19z m-12 -18 c3 -6 -1 -7 -9 -4 -18 7 -21 14 -7
14 6 0 13 -4 16 -10z m-15 -15 c0 -2 -6 -8 -13 -14 -10 -8 -14 -7 -14 2 0 8 6
14 14 14 7 0 13 -1 13 -2z m57 -11 c-3 -3 -12 -4 -19 -1 -8 3 -5 6 6 6 11 1
17 -2 13 -5z m-58 -38 c9 -11 9 -16 -1 -22 -7 -4 -10 -4 -6 1 4 4 3 14 -3 22
-6 7 -9 13 -6 13 2 0 10 -6 16 -14z m-1612 -29 c0 -8 -6 -14 -14 -14 -9 0 -10
4 -2 14 6 7 12 13 14 13 1 0 2 -6 2 -13z m1630 -5 c-10 -10 -15 -21 -12 -24 3
-3 -5 -13 -17 -24 l-23 -19 19 23 c11 12 15 22 11 22 -4 0 0 9 10 20 10 11 20
20 23 20 3 0 -2 -8 -11 -18z m-1637 -32 c0 7 3 11 6 7 3 -3 3 -11 -1 -17 -5
-8 -12 -7 -24 4 -10 9 -21 13 -26 9 -4 -5 -5 -2 -1 5 6 11 12 10 27 -4 14 -12
19 -13 19 -4z m1595 10 c-3 -5 -12 -10 -18 -10 -7 0 -6 4 3 10 19 12 23 12 15
0z m-1545 -4 c0 -2 -7 -7 -16 -10 -8 -3 -12 -2 -9 4 6 10 25 14 25 6z m1634
-30 c-3 -9 -12 -12 -22 -9 -15 6 -9 11 25 22 1 1 0 -5 -3 -13z m-51 -8 c-6 -7
-9 -20 -8 -29 2 -9 -3 -16 -11 -16 -10 0 -11 4 -3 14 6 7 8 13 4 13 -4 0 -2 7
5 15 15 18 27 20 13 3z m-1592 -23 c3 2 5 -8 4 -23 0 -15 -6 -27 -12 -27 -7 0
-13 4 -12 9 0 5 -5 13 -13 18 -10 7 -9 8 5 4 23 -7 21 2 -5 25 l-23 20 26 -15
c14 -9 28 -14 30 -11z m1559 9 c0 -8 -19 -13 -24 -6 -3 5 1 9 9 9 8 0 15 -2
15 -3z m53 -9 c-3 -9 -8 -14 -10 -11 -3 3 -2 9 2 15 9 16 15 13 8 -4z m-1666
-9 c0 -15 -21 -16 -34 -1 -4 4 -3 5 4 1 6 -3 14 -2 18 4 8 14 12 13 12 -4z
m1613 -41 c0 -2 -6 -8 -13 -14 -10 -8 -14 -7 -14 2 0 8 6 14 14 14 7 0 13 -1
13 -2z m-1615 -33 c-3 -3 -11 0 -18 7 -9 10 -8 11 6 5 10 -3 15 -9 12 -12z
m65 14 c0 -2 -12 -12 -27 -21 l-28 -18 19 21 c17 20 36 29 36 18z m1570 0 c0
-2 -8 -10 -17 -17 -16 -13 -17 -12 -4 4 13 16 21 21 21 13z m-59 -59 c-10 -9
-11 -8 -5 6 3 10 9 15 12 12 3 -3 0 -11 -7 -18z m-1572 0 c8 -10 7 -14 -2 -14
-8 0 -14 6 -14 14 0 7 1 13 2 13 2 0 8 -6 14 -13z m54 -14 c-7 -2 -19 -2 -25
0 -7 3 -2 5 12 5 14 0 19 -2 13 -5z m1547 4 c0 -2 -8 -11 -18 -20 -15 -14 -19
-15 -19 -2 0 8 4 12 8 9 4 -2 10 0 14 6 6 10 15 14 15 7z m-1620 -37 c0 -5 -5
-10 -11 -10 -5 0 -7 5 -4 10 3 6 8 10 11 10 2 0 4 -4 4 -10z m1621 -3 c-6 -8
-8 -17 -4 -20 3 -4 1 -7 -5 -7 -15 0 -15 13 0 28 16 16 23 15 9 -1z m-1561 -6
c0 -6 -4 -12 -8 -15 -5 -3 -9 1 -9 9 0 8 4 15 9 15 4 0 8 -4 8 -9z m1526 -33
c3 -4 -1 -5 -10 -4 -8 1 -18 5 -22 8 -3 4 1 5 10 4 8 -1 18 -5 22 -8z m-35
-25 c13 -16 12 -17 -3 -4 -17 13 -22 21 -14 21 2 0 10 -8 17 -17z m-31 -31 c0
-5 -7 -9 -15 -9 -8 0 -12 4 -9 9 3 4 9 8 15 8 5 0 9 -4 9 -8z m27 -40 c-10
-10 -15 -21 -12 -24 3 -3 -5 -13 -17 -24 l-23 -19 19 23 c11 12 15 22 11 22
-4 0 0 9 10 20 10 11 20 20 23 20 3 0 -2 -8 -11 -18z m-47 -26 c-7 -7 -13 -7
-20 0 -6 6 -3 10 10 10 13 0 16 -4 10 -10z m-29 -23 c13 -16 12 -17 -3 -4 -10
7 -18 15 -18 17 0 8 8 3 21 -13z m-25 -51 c-17 -16 -18 -16 -5 5 7 12 15 20
18 17 3 -2 -3 -12 -13 -22z m79 19 c-9 -8 -36 -10 -30 -2 2 4 11 8 20 8 8 0
13 -3 10 -6z m-109 -16 c-1 -8 -5 -17 -8 -21 -5 -4 -4 16 1 34 3 9 9 -1 7 -13z
m88 -26 c-10 -12 -18 -24 -17 -28 1 -3 0 -8 -2 -9 -2 -2 -3 3 -1 11 2 16 25
47 34 47 3 0 -3 -9 -14 -21z m-127 -9 c-1 -12 -10 -29 -22 -38 l-20 -17 20 24
c11 13 19 25 18 27 -5 7 -3 24 1 24 3 0 4 -9 3 -20z m93 -4 c0 -2 -8 -10 -17
-17 -16 -13 -17 -12 -4 4 13 16 21 21 21 13z m0 -69 c0 -4 5 -5 12 -1 7 4 8 3
4 -4 -9 -15 -28 -6 -44 18 -12 19 -11 20 8 8 11 -7 20 -16 20 -21z m-210 -11
c0 -2 -7 -7 -16 -10 -8 -3 -12 -2 -9 4 6 10 25 14 25 6z m35 -4 c-3 -3 0 -11
6 -19 17 -20 5 -16 -14 5 -15 16 -15 19 -2 19 8 0 13 -3 10 -5z m40 0 c-3 -3
3 -15 12 -26 14 -15 14 -18 2 -8 -9 6 -20 8 -25 4 -5 -4 -6 -3 -2 2 4 5 3 14
-2 21 -7 8 -5 12 5 12 8 0 13 -3 10 -5z m42 -9 c0 -9 -4 -10 -14 -2 -7 6 -13
12 -13 14 0 1 6 2 13 2 8 0 14 -6 14 -14z m57 8 c-8 -8 -34 -10 -38 -2 -3 4 6
7 19 7 14 0 22 -2 19 -5z m-163 -28 c13 -16 12 -17 -3 -4 -10 7 -18 15 -18 17
0 8 8 3 21 -13z m149 3 c0 -2 -9 -6 -20 -9 -11 -3 -18 -1 -14 4 5 9 34 13 34
5z m-224 -30 c0 -14 -3 -23 -7 -20 -6 3 -6 22 0 42 3 10 7 -2 7 -22z m59 -4
c-3 -3 1 -12 8 -21 11 -14 10 -14 -6 -2 -9 8 -15 16 -12 19 3 3 -1 12 -8 21
-11 14 -10 14 6 2 9 -8 15 -16 12 -19z m61 -8 c1 -9 0 -13 -4 -10 -3 4 -7 14
-8 22 -1 9 0 13 4 10 3 -4 7 -14 8 -22z m44 10 c0 -8 -19 -13 -24 -6 -3 5 1 9
9 9 8 0 15 -2 15 -3z m-221 -17 c8 -10 7 -14 -2 -14 -8 0 -14 6 -14 14 0 7 1
13 2 13 2 0 8 -6 14 -13z m37 -25 c-3 -3 0 -12 6 -21 10 -13 10 -14 -2 -4 -16
15 -23 46 -8 37 5 -3 7 -9 4 -12z m81 -27 c0 -8 -4 -12 -9 -9 -5 4 -7 9 -4 12
3 3 -2 15 -11 26 -18 21 -18 21 3 3 11 -9 21 -24 21 -32z m-44 17 c15 -16 15
-19 2 -19 -8 0 -13 3 -10 5 3 3 0 11 -6 19 -17 20 -5 16 14 -5z m-137 -27 c-1
-8 -5 -17 -8 -21 -5 -4 -4 16 1 34 3 9 9 -1 7 -13z m-101 -23 c-3 -3 3 -15 12
-26 18 -21 18 -21 -5 -2 -12 11 -20 21 -17 24 3 3 -1 12 -8 21 -11 14 -10 14
6 2 9 -8 15 -16 12 -19z m-83 1 c-1 -4 7 -17 16 -28 17 -20 17 -20 -4 -2 -11
9 -21 24 -21 32 0 8 2 13 5 11 2 -2 4 -8 4 -13z m54 -5 c3 -4 -1 -5 -10 -4 -8
1 -18 5 -22 8 -3 4 1 5 10 4 8 -1 18 -5 22 -8z m80 0 c3 -4 -1 -5 -10 -4 -8 1
-18 5 -22 8 -3 4 1 5 10 4 8 -1 18 -5 22 -8z m78 -20 c-18 -20 -18 -21 -1 -15
10 4 16 3 12 -2 -3 -6 -14 -9 -25 -8 -13 1 -16 5 -10 13 6 6 6 15 2 19 -4 5
-2 5 5 1 6 -3 14 -2 18 4 3 5 9 10 12 10 3 0 -2 -10 -13 -22z m-399 2 c-3 -5
-12 -10 -18 -10 -7 0 -6 4 3 10 19 12 23 12 15 0z m450 -8 c-3 -3 -11 0 -18 7
-9 10 -8 11 6 5 10 -3 15 -9 12 -12z m-896 -5 c8 -10 7 -14 -2 -14 -8 0 -14 6
-14 14 0 7 1 13 2 13 2 0 8 -6 14 -13z m80 0 c8 -10 7 -14 -2 -14 -8 0 -14 6
-14 14 0 7 1 13 2 13 2 0 8 -6 14 -13z m80 0 c8 -10 7 -14 -2 -14 -8 0 -14 6
-14 14 0 7 1 13 2 13 2 0 8 -6 14 -13z m80 0 c8 -10 7 -14 -2 -14 -8 0 -14 6
-14 14 0 7 1 13 2 13 2 0 8 -6 14 -13z m162 -4 c13 -16 12 -17 -3 -4 -10 7
-18 15 -18 17 0 8 8 3 21 -13z m79 13 c0 -2 -8 -10 -17 -17 -16 -13 -17 -12
-4 4 13 16 21 21 21 13z m-729 -23 c13 -16 12 -17 -3 -4 -10 7 -18 15 -18 17
0 8 8 3 21 -13z m114 -30 c-18 -17 -18 -17 -6 0 11 14 11 20 0 35 -12 16 -12
16 6 0 19 -18 19 -18 0 -35z m101 35 c3 -4 -1 -5 -10 -4 -8 1 -18 5 -22 8 -3
4 1 5 10 4 8 -1 18 -5 22 -8z m78 4 c3 -5 -1 -9 -9 -9 -8 0 -12 4 -9 9 3 4 7
8 9 8 2 0 6 -4 9 -8z m80 0 c3 -5 -1 -9 -9 -9 -8 0 -12 4 -9 9 3 4 7 8 9 8 2
0 6 -4 9 -8z m80 0 c3 -5 -1 -9 -9 -9 -8 0 -12 4 -9 9 3 4 7 8 9 8 2 0 6 -4 9
-8z m-367 -17 c0 -8 -3 -13 -5 -10 -3 3 -10 0 -17 -5 -8 -7 -12 -5 -12 5 0 8
4 12 8 9 4 -2 10 0 14 6 9 14 12 13 12 -5z m455 0 c2 3 5 -2 5 -10 0 -19 0
-19 -23 7 -12 14 -13 18 -3 10 9 -6 18 -10 21 -7z m204 -5 c0 -12 -4 -16 -9
-11 -5 5 -6 14 -3 20 10 15 12 14 12 -9z m135 5 c31 1 46 -3 46 -12 0 -7 -5
-9 -11 -5 -6 5 -32 8 -57 7 -31 -1 -46 3 -46 12 0 7 5 9 11 5 6 -5 32 -8 57
-7z m123 -4 c-8 -8 -34 -10 -38 -2 -3 4 6 7 19 7 14 0 22 -2 19 -5z m64 -6 c3
-3 -4 -4 -16 -2 -12 2 -24 6 -28 10 -4 3 4 4 16 2 12 -2 25 -7 28 -10z m-418
1 c0 -2 -8 -10 -17 -17 -16 -13 -17 -12 -4 4 13 16 21 21 21 13z m-630 -9 c0
-2 -9 -12 -19 -21 -14 -13 -21 -14 -27 -5 -4 7 -3 10 3 6 6 -4 16 0 23 8 12
14 20 19 20 12z m320 -2 c0 -1 -10 -10 -22 -21 -14 -12 -18 -13 -10 -3 6 9 10
18 7 21 -3 2 2 5 10 5 8 0 15 -1 15 -2z m30 -10 c-5 -7 -9 -14 -7 -16 1 -2 0
-3 -2 -2 -2 2 -11 -3 -20 -9 -12 -10 -12 -7 2 8 9 11 15 23 12 26 -3 2 2 5 10
5 10 0 12 -4 5 -12z m50 10 c0 -1 -10 -10 -22 -21 -14 -12 -18 -13 -10 -3 6 9
10 18 7 21 -3 2 2 5 10 5 8 0 15 -1 15 -2z m65 -3 c-3 -3 0 -11 6 -19 17 -20
5 -16 -14 5 -15 16 -15 19 -2 19 8 0 13 -3 10 -5z m41 -28 c1 -9 -1 -13 -4 -9
-4 4 -7 10 -7 13 0 4 -4 14 -9 22 -7 12 -6 13 4 3 8 -7 15 -20 16 -29z m195
19 c13 -16 12 -17 -3 -4 -10 7 -18 15 -18 17 0 8 8 3 21 -13z m-631 4 c0 -2
-8 -11 -18 -20 -15 -14 -19 -15 -19 -2 0 8 4 12 8 9 4 -2 10 0 14 6 6 10 15
14 15 7z m57 -12 c0 -8 -4 -12 -8 -9 -4 2 -10 0 -14 -6 -3 -5 -1 -10 6 -10 7
0 10 -3 6 -6 -3 -3 -11 -3 -17 1 -8 5 -6 13 6 26 21 23 21 23 21 4z m99 -45
c1 -17 -2 -28 -7 -25 -5 3 -7 16 -5 28 2 12 -4 31 -12 42 -16 19 -16 19 3 3
10 -10 20 -31 21 -48z m360 45 c-1 -8 -5 -17 -8 -21 -5 -4 -4 16 1 34 3 9 9
-1 7 -13z m61 2 c0 -8 -6 -14 -14 -14 -9 0 -10 4 -2 14 6 7 12 13 14 13 1 0 2
-6 2 -13z m236 -12 c-4 -11 -1 -13 11 -9 9 3 16 2 16 -4 0 -20 -35 -5 -36 16
-1 12 2 19 7 16 4 -2 6 -11 2 -19z m-442 -2 c13 -16 12 -17 -3 -4 -15 11 -21
11 -35 0 -16 -13 -17 -12 -4 4 7 9 17 17 21 17 4 0 14 -8 21 -17z m320 -16
c-8 -8 -14 -7 -23 2 -11 10 -9 11 6 5 15 -6 17 -4 11 6 -6 9 -4 11 4 5 9 -5
10 -10 2 -18z m-693 -7 c-7 -11 -16 -20 -21 -20 -4 0 -5 -6 -1 -12 4 -7 3 -9
-1 -5 -11 10 -16 39 -5 32 4 -3 13 2 20 10 18 21 22 18 8 -5z m647 -4 c0 -15
-4 -21 -9 -16 -5 5 -6 16 -3 24 9 22 12 20 12 -8z m-352 6 c4 9 6 8 6 -3 1 -9
-7 -20 -16 -23 -10 -4 -14 -4 -10 0 4 4 1 14 -6 23 -10 14 -10 14 5 3 13 -10
17 -10 21 0z m147 -7 c5 3 10 4 10 1 0 -3 -10 -11 -22 -17 -13 -6 -20 -8 -16
-4 4 5 2 15 -5 24 -10 14 -10 14 5 3 9 -8 22 -11 28 -7z m-245 -23 c-3 -3 -11
0 -18 7 -9 10 -8 11 6 5 10 -3 15 -9 12 -12z m-263 -17 c2 3 5 -2 5 -10 0 -19
0 -19 -23 7 -12 14 -13 18 -3 10 9 -6 18 -10 21 -7z m-32 -105 c0 -5 -2 -10
-4 -10 -3 0 -8 5 -11 10 -3 6 -1 10 4 10 6 0 11 -4 11 -10z m82 -58 c14 -14
-15 -33 -32 -20 -12 8 -12 9 3 4 9 -3 17 -2 17 3 0 15 -13 20 -30 11 -12 -6
-17 -5 -17 4 0 14 44 13 59 -2z m-2 -83 c0 -12 -19 -21 -30 -14 -8 5 -7 11 0
20 7 8 9 20 5 27 -4 7 1 4 9 -6 9 -11 16 -23 16 -27z m-47 6 c-3 -9 -8 -14
-10 -11 -3 3 -2 9 2 15 9 16 15 13 8 -4z m27 -47 c0 7 5 12 11 12 15 0 2 -18
-23 -31 -15 -8 -19 -8 -13 0 4 7 1 20 -6 29 -11 13 -8 12 9 -2 12 -11 22 -14
22 -8z m-46 4 c3 -5 -1 -9 -9 -9 -8 0 -12 4 -9 9 3 4 7 8 9 8 2 0 6 -4 9 -8z
m62 -64 c2 -21 -2 -26 -16 -25 -11 1 -17 3 -15 6 3 2 -1 11 -8 20 -10 14 -10
14 4 3 14 -10 18 -10 22 2 3 8 2 17 -4 20 -5 2 -4 3 2 2 7 -1 13 -14 15 -28z
m-1 -51 c15 -12 16 -15 4 -23 -20 -12 -40 -14 -33 -3 3 5 10 7 15 4 5 -4 9 -1
9 5 0 6 -10 15 -22 20 -14 5 -17 9 -7 9 8 1 23 -5 34 -12z m-75 -27 c0 -5 -2
-10 -4 -10 -3 0 -8 5 -11 10 -3 6 -1 10 4 10 6 0 11 -4 11 -10z m70 -40 c13
-24 5 -40 -18 -39 -15 1 -15 2 1 6 9 2 17 9 17 13 0 6 -10 6 -23 1 -17 -7 -24
-6 -24 4 0 7 8 10 19 7 20 -5 25 13 6 21 -10 4 -10 6 -1 6 7 1 17 -8 23 -19z
m-4 -69 c-12 -13 -14 -20 -5 -23 6 -2 13 -16 15 -31 3 -30 3 -30 -20 -21 -14
5 -14 8 0 21 20 21 11 27 -18 13 -20 -10 -21 -9 -6 3 14 11 15 16 5 27 -9 10
-9 11 1 6 7 -4 15 -1 18 8 3 9 11 16 17 16 5 0 2 -9 -7 -19z m-49 -18 c0 -8
-4 -10 -12 -3 -7 5 -16 6 -20 2 -5 -4 -5 -2 -2 4 9 15 34 13 34 -3z m-17 -73
c0 -5 -2 -10 -4 -10 -3 0 -8 5 -11 10 -3 6 -1 10 4 10 6 0 11 -4 11 -10z m80
-35 c-10 -12 -50 -10 -50 2 0 3 9 3 20 0 25 -6 25 0 3 26 -18 20 -18 20 10 2
20 -13 25 -21 17 -30z m-5 -85 c8 -13 -5 -13 -25 0 -13 8 -13 10 2 10 9 0 20
-4 23 -10z m-58 -47 c0 -8 -4 -10 -12 -3 -7 5 -16 6 -20 2 -5 -4 -5 -2 -2 4 9
15 34 13 34 -3z m57 -39 c16 -6 12 -24 -5 -24 -6 0 -7 5 -3 12 5 8 2 9 -10 5
-10 -4 -15 -3 -11 3 7 12 8 12 29 4z m-76 -36 c-2 -7 2 -12 8 -11 6 1 11 -5
11 -12 0 -10 -4 -12 -12 -5 -7 5 -14 7 -18 4 -4 -5 -3 16 2 34 3 9 11 0 9 -10z
m82 -33 c-11 -13 -34 -14 -46 -2 -4 3 3 5 15 2 26 -5 27 2 4 28 -18 20 -18 20
10 2 20 -13 25 -21 17 -30z m-660 15 c0 -5 -4 -10 -10 -10 -5 0 -10 5 -10 10
0 6 5 10 10 10 6 0 10 -4 10 -10z m196 -26 c1 -9 -1 -13 -4 -9 -4 4 -7 10 -7
13 0 4 -4 14 -9 22 -7 12 -6 13 4 3 8 -7 15 -20 16 -29z m79 18 c-3 -3 -11 0
-18 7 -9 10 -8 11 6 5 10 -3 15 -9 12 -12z m96 1 c13 -17 13 -17 -6 -3 -11 8
-22 16 -24 17 -2 2 0 3 6 3 6 0 17 -8 24 -17z m160 0 c13 -17 13 -17 -6 -3
-11 8 -22 16 -24 17 -2 2 0 3 6 3 6 0 17 -8 24 -17z m-412 -6 c8 -10 7 -14 -2
-14 -8 0 -14 6 -14 14 0 7 1 13 2 13 2 0 8 -6 14 -13z m40 0 c8 -10 7 -14 -2
-14 -8 0 -14 6 -14 14 0 7 1 13 2 13 2 0 8 -6 14 -13z m281 9 c0 -2 -8 -10
-17 -17 -16 -13 -17 -12 -4 4 13 16 21 21 21 13z m-355 -16 c3 -6 -1 -7 -9 -4
-18 7 -21 14 -7 14 6 0 13 -4 16 -10z m161 -2 c3 -4 -1 -5 -10 -4 -8 1 -18 5
-22 8 -3 4 1 5 10 4 8 -1 18 -5 22 -8z m74 8 c0 -2 -7 -7 -16 -10 -8 -3 -12
-2 -9 4 6 10 25 14 25 6z m31 -13 c13 -16 12 -17 -3 -4 -10 7 -18 15 -18 17 0
8 8 3 21 -13z m160 0 c13 -16 12 -17 -3 -4 -10 7 -18 15 -18 17 0 8 8 3 21
-13z m-61 -8 c-7 -8 -17 -15 -23 -15 -6 0 -2 7 9 15 25 19 30 19 14 0z m145 3
c5 4 5 1 1 -6 -6 -10 -11 -10 -22 -1 -8 6 -14 14 -14 16 0 3 6 0 13 -6 8 -6
18 -7 22 -3z m-264 -15 c13 -16 12 -17 -3 -4 -10 7 -18 15 -18 17 0 8 8 3 21
-13z m160 0 c13 -16 12 -17 -3 -4 -10 7 -18 15 -18 17 0 8 8 3 21 -13z m153
-25 c-16 -32 -21 -34 -21 -13 0 8 4 15 9 15 4 0 8 5 8 11 0 6 -9 9 -20 6 -11
-3 -18 -1 -15 4 4 5 17 8 30 7 22 -2 23 -3 9 -30z m-564 18 c0 -2 -7 -7 -16
-10 -8 -3 -12 -2 -9 4 6 10 25 14 25 6z m35 -4 c-3 -3 0 -11 6 -19 17 -20 5
-16 -14 5 -15 16 -15 19 -2 19 8 0 13 -3 10 -5z m34 -6 c9 -11 9 -16 -1 -22
-7 -4 -10 -4 -6 1 4 4 3 14 -3 22 -6 7 -9 13 -6 13 2 0 10 -6 16 -14z m257 2
c3 -4 -1 -5 -10 -4 -8 1 -18 5 -22 8 -3 4 1 5 10 4 8 -1 18 -5 22 -8z m160 0
c3 -4 -1 -5 -10 -4 -8 1 -18 5 -22 8 -3 4 1 5 10 4 8 -1 18 -5 22 -8z m-475
-25 c13 -16 12 -17 -3 -4 -10 7 -18 15 -18 17 0 8 8 3 21 -13z m265 2 c-3 -8
2 -19 12 -24 9 -6 12 -11 7 -11 -17 0 -34 21 -28 36 3 8 7 14 10 14 3 0 3 -7
-1 -15z m160 0 c-3 -9 3 -19 15 -25 11 -6 17 -16 13 -22 -9 -14 -44 31 -37 49
3 7 7 13 10 13 3 0 3 -7 -1 -15z m-479 -1 c-3 -3 -12 -4 -19 -1 -8 3 -5 6 6 6
11 1 17 -2 13 -5z m378 -15 c-4 -5 -12 -9 -18 -8 -9 0 -8 2 1 6 6 2 9 10 6 15
-4 7 -2 8 5 4 6 -4 9 -12 6 -17z m160 0 c-4 -5 -12 -9 -18 -8 -9 0 -8 2 1 6 6
2 9 10 6 15 -4 7 -2 8 5 4 6 -4 9 -12 6 -17z m-408 4 c-4 -3 1 -12 11 -20 12
-10 13 -13 2 -11 -24 5 -40 22 -26 30 14 10 22 10 13 1z m33 -3 c0 -5 -2 -10
-4 -10 -3 0 -8 5 -11 10 -3 6 -1 10 4 10 6 0 11 -4 11 -10z m113 -7 c-4 -9 0
-11 13 -7 11 4 16 4 13 0 -11 -12 -48 -15 -55 -4 -5 7 -2 8 6 3 9 -6 12 -4 8
7 -4 8 -1 15 7 15 7 0 11 -6 8 -14z m-90 -6 c3 -8 -1 -14 -8 -14 -7 0 -11 6
-8 14 3 7 6 13 8 13 2 0 5 -6 8 -13z m221 0 c-3 -8 -12 -14 -21 -14 -13 0 -13
2 3 14 10 7 19 13 21 13 1 0 0 -6 -3 -13z m161 3 c-3 -5 -12 -10 -18 -10 -7 0
-6 4 3 10 19 12 23 12 15 0z m-515 -8 c0 -5 -7 -9 -15 -9 -8 0 -12 4 -9 9 3 4
9 8 15 8 5 0 9 -4 9 -8z m180 0 c0 -5 -7 -9 -15 -9 -8 0 -12 4 -9 9 3 4 9 8
15 8 5 0 9 -4 9 -8z"/>
<path d="M980 3376 c0 -2 6 -9 13 -15 10 -8 14 -7 14 4 0 8 -6 15 -14 15 -7 0
-13 -2 -13 -4z"/>
<path d="M1175 3370 c-4 -6 -11 -7 -17 -4 -7 4 -8 2 -4 -5 6 -9 11 -9 22 0 14
11 18 19 10 19 -3 0 -8 -5 -11 -10z"/>
<path d="M1578 3362 c4 -10 7 -12 10 -4 2 7 9 9 15 5 7 -3 8 -2 4 2 -14 16
-36 14 -29 -3z"/>
<path d="M1628 3362 c4 -10 7 -12 10 -4 2 7 9 9 15 5 7 -3 8 -2 4 2 -14 16
-36 14 -29 -3z"/>
<path d="M1710 3356 c0 -6 25 -33 53 -55 15 -12 17 -12 12 0 -7 15 -65 64 -65
55z"/>
<path d="M965 2800 c-3 -5 -1 -10 4 -10 6 0 11 5 11 10 0 6 -2 10 -4 10 -3 0
-8 -4 -11 -10z"/>
<path d="M965 1720 c-3 -5 -1 -10 4 -10 6 0 11 5 11 10 0 6 -2 10 -4 10 -3 0
-8 -4 -11 -10z"/>
<path d="M2940 2556 l0 -1464 22 -6 c22 -5 23 -6 3 -21 -19 -16 -19 -16 3 -5
12 6 22 15 22 20 0 6 5 10 12 10 9 0 9 -3 0 -12 -19 -19 -14 -32 6 -17 15 12
16 12 5 -2 -7 -9 -9 -20 -5 -25 4 -4 -1 -2 -11 5 -9 8 -20 11 -24 7 -10 -9 30
-36 45 -31 7 3 10 0 7 -6 -4 -6 -13 -8 -21 -5 -8 3 -14 -1 -14 -10 0 -12 -4
-13 -22 -4 -22 11 -22 10 -4 -4 14 -11 24 -13 38 -5 19 10 19 9 3 -15 -16 -25
-16 -25 6 -21 12 3 27 1 33 -3 10 -7 32 -8 39 -2 9 10 64 3 75 -9 11 -14 11
-14 6 1 -5 14 -1 16 18 12 12 -3 30 -7 38 -8 8 -2 20 -1 25 3 19 12 60 7 73
-8 11 -14 11 -14 6 0 -4 12 1 16 18 15 13 0 26 -5 30 -11 5 -6 8 -4 8 5 0 13
1 13 10 0 6 -10 10 -11 10 -2 0 6 4 12 10 12 5 0 7 -8 4 -17 -3 -10 3 -6 12
10 17 24 44 41 29 17 -3 -5 -1 -10 5 -10 6 0 8 -5 4 -12 -5 -7 -3 -8 5 -4 7 5
10 15 7 23 -3 8 -2 12 3 8 5 -3 12 1 15 7 3 7 4 1 1 -14 -3 -17 -1 -28 5 -28
6 0 8 5 4 11 -10 16 39 7 54 -11 11 -13 11 -13 6 1 -4 12 1 16 18 15 13 0 27
-5 31 -11 5 -6 6 -2 3 8 -3 10 -2 15 3 12 5 -3 12 3 14 12 4 17 5 17 6 1 0
-10 5 -18 11 -18 5 0 7 -8 3 -17 -7 -19 -5 -18 17 11 12 16 12 18 1 11 -10 -5
-12 -4 -7 4 4 6 11 9 16 6 4 -3 10 -2 13 2 2 5 2 2 1 -4 -2 -7 1 -13 7 -13 6
0 7 -6 4 -12 -4 -7 3 -2 15 12 21 24 21 24 15 3 -4 -14 -2 -23 5 -23 6 0 8 5
4 11 -10 16 39 7 54 -11 10 -13 11 -12 5 5 -3 11 -3 17 2 13 4 -4 15 -2 23 5
11 8 14 8 9 0 -4 -6 -2 -15 4 -19 7 -4 9 -3 5 4 -8 14 56 11 66 -3 5 -6 8 -6
8 2 0 6 8 10 18 8 9 -1 16 -9 14 -16 -2 -10 2 -8 14 4 17 16 19 16 32 -5 l13
-23 -6 23 c-7 26 12 27 32 2 12 -13 12 -13 7 1 -4 12 1 16 18 15 13 0 27 -5
31 -11 5 -6 6 -2 3 8 -3 10 -2 15 3 12 5 -3 12 3 14 12 4 17 5 17 6 1 0 -10 5
-18 11 -18 5 0 7 -8 3 -17 -7 -19 -5 -18 17 11 12 16 12 18 1 11 -10 -5 -12
-4 -7 3 11 19 26 14 26 -8 0 -11 4 -20 9 -20 5 0 7 9 4 20 -5 21 11 28 22 10
4 -6 10 -8 15 -5 4 3 13 -1 19 -9 9 -11 46 -15 46 -5 0 10 63 1 73 -10 11 -14
11 -14 6 0 -4 12 1 16 18 15 13 0 26 -5 30 -11 5 -6 8 -4 8 5 0 13 1 13 10 0
6 -10 10 -11 10 -2 0 6 4 12 10 12 5 0 7 -8 4 -17 -5 -17 -5 -17 5 -1 9 13 25
16 88 14 49 -1 78 -7 81 -14 5 -16 23 -15 19 1 -3 18 132 17 142 -2 6 -10 10
-10 15 -2 4 6 2 11 -4 11 -6 0 -8 5 -4 12 5 7 2 8 -7 3 -8 -5 -10 -4 -6 0 10
12 38 15 31 4 -3 -5 0 -9 6 -9 6 0 8 -6 4 -12 -5 -10 -4 -10 5 -2 10 9 10 17
1 35 -13 24 -13 24 7 4 11 -11 18 -27 15 -35 -5 -13 -4 -13 10 0 9 8 14 17 13
20 -2 3 1 12 6 20 7 12 8 11 6 -5 -1 -11 -6 -26 -10 -32 -5 -7 -4 -13 2 -13 5
0 13 9 16 20 4 12 11 17 18 13 7 -4 3 6 -7 22 -19 30 -19 30 0 15 10 -8 22
-19 26 -25 5 -6 8 -6 8 2 0 6 -7 19 -16 27 -8 9 -13 20 -10 25 8 12 -16 29
-37 26 -9 -2 -15 0 -12 5 3 5 11 7 19 6 19 -3 47 -27 41 -35 -2 -4 2 -8 9 -8
19 0 -4 46 -27 53 -10 3 -16 8 -14 11 3 2 14 0 26 -6 14 -8 22 -8 27 1 5 7 3
8 -5 4 -8 -5 -12 -3 -10 5 4 32 -1 41 -18 34 -26 -11 -73 -14 -68 -5 3 5 13 7
23 5 9 -1 29 4 43 11 15 7 30 10 34 6 5 -4 5 -2 2 5 -8 13 -24 12 -47 -2 -13
-7 -13 -6 -2 7 14 18 6 27 -21 23 -9 -2 -15 0 -12 5 7 11 30 7 49 -9 13 -11
16 -11 17 0 0 8 2 24 3 37 3 22 -26 67 -36 57 -2 -3 -4 4 -3 15 1 11 5 23 10
27 4 5 5 2 1 -4 -4 -7 -3 -13 1 -13 5 0 15 6 22 13 11 9 13 9 7 0 -4 -7 -2
-13 4 -13 7 0 10 6 7 13 -2 6 -9 11 -15 10 -15 -3 -35 24 -27 37 3 6 10 8 15
5 5 -3 11 -1 15 5 3 5 0 10 -8 10 -8 0 -17 6 -19 13 -7 16 1 37 14 37 7 0 6
-5 -1 -14 -9 -11 -8 -15 5 -20 24 -9 31 -7 14 4 -13 8 -13 11 -1 19 17 11 6
32 -13 25 -7 -3 -16 1 -19 9 -4 10 0 13 13 10 10 -3 21 1 25 7 5 9 1 10 -15 5
-12 -4 -20 -3 -17 2 3 4 -10 9 -29 9 -24 0 -33 -3 -30 -12 3 -8 -1 -11 -10 -7
-23 8 2 32 31 28 14 -1 22 2 19 6 -3 5 -18 7 -35 4 -28 -5 -29 -4 -29 35 l0
40 -589 0 c-525 0 -590 2 -595 16 -3 8 -11 12 -17 8 -8 -5 -9 -3 -5 5 5 7 13
10 20 8 11 -4 12 15 7 76 -1 5 -5 6 -9 3 -4 -2 -9 5 -9 17 -2 17 0 19 7 7 10
-16 13 3 12 85 0 56 -1 57 -13 49 -8 -4 -7 -9 2 -15 10 -6 10 -9 2 -9 -16 0
-26 17 -14 25 6 3 8 13 5 23 -5 14 -4 15 5 2 9 -12 11 -11 11 8 0 13 5 33 11
44 8 15 8 19 0 13 -8 -4 -10 2 -7 19 3 14 0 28 -5 31 -5 4 -9 11 -9 16 0 6 4
8 9 4 5 -3 13 0 17 6 4 8 3 9 -4 5 -7 -4 -12 -3 -12 3 0 6 -8 8 -17 4 -12 -3
-10 1 5 12 16 12 20 21 13 28 -7 7 -7 16 0 29 7 14 6 20 -5 24 -8 3 -19 3 -25
0 -11 -7 -8 20 4 31 4 4 5 2 1 -4 -5 -9 0 -13 13 -13 12 0 21 5 21 11 0 5 -4
8 -9 5 -5 -3 -12 1 -15 10 -4 11 -2 15 7 11 9 -3 13 5 12 31 -1 20 -7 38 -14
40 -6 2 -16 13 -22 25 -9 20 -9 20 4 5 16 -20 37 -24 37 -7 0 5 -4 8 -9 5 -5
-3 -12 1 -15 10 -4 11 -2 15 7 11 9 -3 12 8 11 42 0 25 2 51 5 56 10 17 10 35
0 29 -6 -3 -8 5 -5 20 3 14 0 28 -5 31 -5 4 -9 11 -9 16 0 6 4 8 9 4 5 -3 13
0 17 6 4 8 3 9 -4 5 -7 -4 -12 -3 -12 3 0 6 -8 8 -17 4 -12 -3 -10 1 5 12 17
12 21 20 13 28 -13 13 -15 30 -2 22 5 -3 13 0 17 6 4 8 3 9 -5 5 -8 -5 -10 0
-7 18 3 14 0 28 -5 31 -5 4 -9 11 -9 16 0 6 4 8 9 4 5 -3 13 0 17 6 4 8 3 9
-4 5 -7 -4 -12 -3 -12 3 0 6 -8 8 -17 4 -12 -3 -10 1 5 12 16 12 20 21 13 28
-7 7 -7 16 0 29 7 14 6 20 -5 24 -8 3 -19 3 -25 0 -11 -7 -8 20 4 31 4 4 5 2
1 -4 -5 -9 0 -13 13 -13 12 0 21 5 21 11 0 5 -4 8 -9 5 -5 -3 -12 1 -15 10 -4
11 -2 15 7 11 9 -3 13 5 12 31 -1 20 -7 38 -14 40 -6 2 -16 13 -22 25 -9 20
-9 20 4 5 16 -20 37 -24 37 -7 0 5 -4 8 -9 5 -5 -3 -12 1 -15 10 -4 11 -2 15
7 11 9 -3 12 8 11 42 0 25 2 51 5 56 10 17 10 35 0 29 -6 -3 -8 5 -5 20 3 14
0 28 -5 31 -5 4 -9 11 -9 16 0 6 4 8 9 4 5 -3 13 0 17 6 4 8 3 9 -4 5 -7 -4
-12 -3 -12 3 0 6 -8 8 -17 4 -12 -3 -10 0 5 12 18 13 20 20 12 30 -6 8 -19 11
-28 9 -15 -5 -15 -4 1 6 9 6 21 9 25 6 7 -4 8 25 3 77 -1 5 -5 6 -9 3 -4 -2
-9 5 -9 17 -2 17 0 19 7 7 10 -16 13 3 12 85 0 56 -1 57 -13 49 -8 -4 -7 -9 2
-15 10 -6 10 -9 2 -9 -16 0 -26 17 -14 25 6 3 8 13 5 23 -5 14 -4 15 5 2 9
-12 11 -11 11 8 0 13 5 33 11 44 8 15 8 19 0 13 -8 -4 -10 2 -7 19 3 14 0 28
-5 31 -5 4 -9 11 -9 16 0 6 4 8 9 4 5 -3 13 0 17 6 4 8 3 9 -4 5 -7 -4 -12 -3
-12 3 0 6 -8 8 -17 4 -12 -3 -10 1 5 12 16 12 20 21 13 28 -7 7 -7 16 0 29 7
14 6 20 -5 24 -8 3 -19 3 -25 0 -11 -7 -8 20 4 31 4 4 5 2 1 -4 -5 -9 0 -13
13 -13 12 0 21 5 21 11 0 5 -4 8 -9 5 -5 -3 -12 1 -15 10 -4 11 -2 15 7 11 9
-3 13 5 12 31 -1 20 -7 38 -14 40 -6 2 -16 13 -22 24 -8 15 -8 19 0 14 6 -4
11 -2 11 3 0 6 4 11 8 11 5 0 9 -7 9 -15 0 -8 -4 -12 -9 -9 -4 3 -8 0 -8 -5 0
-6 7 -11 15 -11 11 0 14 7 11 26 -7 35 -12 39 -33 23 -10 -7 -15 -9 -11 -5 10
11 -28 39 -41 31 -5 -3 -13 0 -16 6 -12 19 2 21 33 5 16 -8 33 -12 37 -8 5 4
5 1 0 -7 -5 -9 -4 -12 3 -7 6 4 8 14 5 22 -4 12 -8 13 -13 4 -5 -9 -10 -5 -15
10 -5 15 -10 19 -14 11 -4 -6 -15 -9 -24 -5 -16 6 -22 22 -18 52 2 9 -65 12
-304 12 l-305 0 0 -1464z m630 1344 c0 -5 -5 -10 -11 -10 -5 0 -7 5 -4 10 3 6
8 10 11 10 2 0 4 -4 4 -10z m37 -55 c0 -8 -4 -15 -9 -15 -10 0 -11 14 -1 23 9
10 10 9 10 -8z m40 -21 c-3 -3 -12 -4 -19 -1 -8 3 -5 6 6 6 11 1 17 -2 13 -5z
m-6 -31 c7 -10 9 -15 5 -11 -5 4 -15 3 -23 -3 -9 -9 -13 -8 -13 0 0 6 6 11 13
11 8 0 7 4 -3 10 -8 5 -10 10 -4 10 6 0 18 -8 25 -17z m-74 -18 c0 -8 -4 -12
-9 -9 -5 3 -6 10 -3 15 9 13 12 11 12 -6z m13 -31 c0 -8 -19 -13 -24 -6 -3 5
1 9 9 9 8 0 15 -2 15 -3z m-5 -44 c-3 -5 -12 -10 -18 -10 -7 0 -6 4 3 10 19
12 23 12 15 0z m75 6 c0 -3 -4 -8 -10 -11 -5 -3 -10 -1 -10 4 0 6 5 11 10 11
6 0 10 -2 10 -4z m-26 -21 c3 -8 1 -15 -4 -15 -6 0 -10 7 -10 15 0 8 2 15 4
15 2 0 6 -7 10 -15z m23 -31 c-3 -3 -12 -4 -19 -1 -8 3 -5 6 6 6 11 1 17 -2
13 -5z m-52 -53 c-9 -8 -36 -10 -30 -2 2 4 11 8 20 8 8 0 13 -3 10 -6z m32 -5
c-4 -9 1 -17 11 -20 13 -4 13 -4 -2 -3 -19 2 -33 37 -14 37 6 0 8 -6 5 -14z
m-37 -20 c0 -2 -8 -10 -17 -17 -16 -13 -17 -12 -4 4 13 16 21 21 21 13z m6
-34 c-17 -16 -18 -16 -5 5 7 12 15 20 18 17 3 -2 -3 -12 -13 -22z m49 8 c-3
-5 -12 -10 -18 -10 -7 0 -6 4 3 10 19 12 23 12 15 0z m-15 -32 c0 -9 4 -8 10
2 5 8 10 11 10 5 0 -5 -4 -16 -9 -23 -6 -11 -10 -10 -15 4 -6 16 -8 15 -29 -2
l-22 -19 19 23 c21 24 36 29 36 10z m-14 -47 c0 -11 -5 -17 -13 -14 -10 4 -11
9 -2 19 15 18 15 18 15 -5z m-45 -14 c-6 -8 -7 -18 -3 -22 4 -5 1 -5 -6 -1
-10 6 -10 11 -1 22 6 8 14 14 16 14 3 0 0 -6 -6 -13z m33 -16 c3 -5 -2 -15
-12 -22 -15 -12 -16 -12 -5 2 7 9 10 19 6 22 -3 4 -4 7 0 7 3 0 8 -4 11 -9z
m30 -52 c10 -19 12 -37 7 -46 -7 -13 -9 -13 -14 1 -5 11 -3 15 4 10 7 -4 10
-1 7 7 -3 8 -10 13 -16 12 -5 -1 -16 5 -24 15 -12 16 -11 16 6 2 18 -14 19
-13 14 8 -8 31 -2 28 16 -9z m-24 -33 c0 -2 -8 -10 -17 -17 -16 -13 -17 -12
-4 4 13 16 21 21 21 13z m6 -45 c0 -11 -5 -17 -13 -14 -10 4 -11 9 -2 19 15
18 15 18 15 -5z m-45 -14 c-6 -8 -7 -18 -3 -22 4 -5 1 -5 -6 -1 -10 6 -10 11
-1 22 6 8 14 14 16 14 3 0 0 -6 -6 -13z m33 -16 c3 -5 -2 -15 -12 -22 -15 -12
-16 -12 -5 2 7 9 10 19 6 22 -3 4 -4 7 0 7 3 0 8 -4 11 -9z m43 -17 c-3 -3
-12 -4 -19 -1 -8 3 -5 6 6 6 11 1 17 -2 13 -5z m-6 -31 c7 -10 9 -15 5 -11 -5
4 -15 3 -23 -3 -9 -9 -13 -8 -13 0 0 6 6 11 13 11 8 0 7 4 -3 10 -8 5 -10 10
-4 10 6 0 18 -8 25 -17z m6 -59 c-3 -3 -12 -4 -19 -1 -8 3 -5 6 6 6 11 1 17
-2 13 -5z m-52 -53 c-9 -8 -36 -10 -30 -2 2 4 11 8 20 8 8 0 13 -3 10 -6z m32
-5 c-4 -9 1 -17 11 -20 13 -4 13 -4 -2 -3 -19 2 -33 37 -14 37 6 0 8 -6 5 -14z
m-37 -20 c0 -2 -8 -10 -17 -17 -16 -13 -17 -12 -4 4 13 16 21 21 21 13z m6
-34 c-17 -16 -18 -16 -5 5 7 12 15 20 18 17 3 -2 -3 -12 -13 -22z m49 8 c-3
-5 -12 -10 -18 -10 -7 0 -6 4 3 10 19 12 23 12 15 0z m-15 -24 c0 -3 -4 -8
-10 -11 -5 -3 -10 -1 -10 4 0 6 5 11 10 11 6 0 10 -2 10 -4z m21 -20 c-6 -7
-9 -16 -6 -20 3 -3 0 -2 -5 2 -13 11 -2 44 12 36 5 -4 5 -11 -1 -18z m-71 -2
c0 -8 -19 -13 -24 -6 -3 5 1 9 9 9 8 0 15 -2 15 -3z m62 -49 c-3 -5 -7 -4 -10
3 -2 7 -7 10 -11 8 -4 -3 -7 4 -8 14 -2 18 -1 18 16 2 10 -9 15 -21 13 -27z
m-67 5 c-3 -5 -12 -10 -18 -10 -7 0 -6 4 3 10 19 12 23 12 15 0z m71 -32 c4
-7 4 -10 -1 -6 -4 4 -14 3 -22 -3 -8 -8 -13 -8 -13 -1 0 6 6 13 13 15 6 3 13
6 14 6 1 1 5 -5 9 -11z m-36 -68 c0 -5 -4 -10 -10 -10 -5 0 -10 5 -10 10 0 6
5 10 10 10 6 0 10 -4 10 -10z m37 -16 c-3 -3 -12 -4 -19 -1 -8 3 -5 6 6 6 11
1 17 -2 13 -5z m-6 -31 c7 -10 9 -15 5 -11 -5 4 -15 3 -23 -3 -9 -9 -13 -8
-13 0 0 6 6 11 13 11 8 0 7 4 -3 10 -8 5 -10 10 -4 10 6 0 18 -8 25 -17z m-74
-18 c0 -8 -4 -12 -9 -9 -5 3 -6 10 -3 15 9 13 12 11 12 -6z m13 -31 c0 -8 -19
-13 -24 -6 -3 5 1 9 9 9 8 0 15 -2 15 -3z m-5 -44 c-3 -5 -12 -10 -18 -10 -7
0 -6 4 3 10 19 12 23 12 15 0z m75 6 c0 -3 -4 -8 -10 -11 -5 -3 -10 -1 -10 4
0 6 5 11 10 11 6 0 10 -2 10 -4z m-26 -21 c3 -8 1 -15 -4 -15 -6 0 -10 7 -10
15 0 8 2 15 4 15 2 0 6 -7 10 -15z m23 -31 c-3 -3 -12 -4 -19 -1 -8 3 -5 6 6
6 11 1 17 -2 13 -5z m-52 -53 c-9 -8 -36 -10 -30 -2 2 4 11 8 20 8 8 0 13 -3
10 -6z m32 -5 c-4 -9 1 -17 11 -20 13 -4 13 -4 -2 -3 -19 2 -33 37 -14 37 6 0
8 -6 5 -14z m-37 -20 c0 -2 -8 -10 -17 -17 -16 -13 -17 -12 -4 4 13 16 21 21
21 13z m6 -34 c-17 -16 -18 -16 -5 5 7 12 15 20 18 17 3 -2 -3 -12 -13 -22z
m49 8 c-3 -5 -12 -10 -18 -10 -7 0 -6 4 3 10 19 12 23 12 15 0z m-15 -30 c0
-5 -4 -10 -10 -10 -5 0 -10 5 -10 10 0 6 5 10 10 10 6 0 10 -4 10 -10z m17
-26 c-3 -3 -12 -4 -19 -1 -8 3 -5 6 6 6 11 1 17 -2 13 -5z m-52 -53 c-9 -8
-36 -10 -30 -2 2 4 11 8 20 8 8 0 13 -3 10 -6z m32 -5 c-4 -9 1 -17 11 -20 13
-4 13 -4 -2 -3 -19 2 -33 37 -14 37 6 0 8 -6 5 -14z m-37 -20 c0 -2 -8 -10
-17 -17 -16 -13 -17 -12 -4 4 13 16 21 21 21 13z m6 -34 c-17 -16 -18 -16 -5
5 7 12 15 20 18 17 3 -2 -3 -12 -13 -22z m49 8 c-3 -5 -12 -10 -18 -10 -7 0
-6 4 3 10 19 12 23 12 15 0z m-15 -24 c0 -3 -4 -8 -10 -11 -5 -3 -10 -1 -10 4
0 6 5 11 10 11 6 0 10 -2 10 -4z m21 -20 c-6 -7 -9 -16 -6 -20 3 -3 0 -2 -5 2
-13 11 -2 44 12 36 5 -4 5 -11 -1 -18z m-71 -2 c0 -8 -19 -13 -24 -6 -3 5 1 9
9 9 8 0 15 -2 15 -3z m62 -49 c-3 -5 -7 -4 -10 3 -2 7 -7 10 -11 8 -4 -3 -7 4
-8 14 -2 18 -1 18 16 2 10 -9 15 -21 13 -27z m-67 5 c-3 -5 -12 -10 -18 -10
-7 0 -6 4 3 10 19 12 23 12 15 0z m71 -32 c4 -7 4 -10 -1 -6 -4 4 -14 3 -22
-3 -8 -8 -13 -8 -13 -1 0 6 6 13 13 15 6 3 13 6 14 6 1 1 5 -5 9 -11z m-36
-68 c0 -5 -4 -10 -10 -10 -5 0 -10 5 -10 10 0 6 5 10 10 10 6 0 10 -4 10 -10z
m37 -16 c-3 -3 -12 -4 -19 -1 -8 3 -5 6 6 6 11 1 17 -2 13 -5z m-6 -31 c7 -10
9 -15 5 -11 -5 4 -15 3 -23 -3 -9 -9 -13 -8 -13 0 0 6 6 11 13 11 8 0 7 4 -3
10 -8 5 -10 10 -4 10 6 0 18 -8 25 -17z m-74 -18 c0 -8 -4 -12 -9 -9 -5 3 -6
10 -3 15 9 13 12 11 12 -6z m13 -31 c0 -8 -19 -13 -24 -6 -3 5 1 9 9 9 8 0 15
-2 15 -3z m-5 -44 c-3 -5 -12 -10 -18 -10 -7 0 -6 4 3 10 19 12 23 12 15 0z
m75 6 c0 -3 -4 -8 -10 -11 -5 -3 -10 -1 -10 4 0 6 5 11 10 11 6 0 10 -2 10 -4z
m-26 -21 c3 -8 1 -15 -4 -15 -6 0 -10 7 -10 15 0 8 2 15 4 15 2 0 6 -7 10 -15z
m23 -31 c-3 -3 -12 -4 -19 -1 -8 3 -5 6 6 6 11 1 17 -2 13 -5z m-52 -53 c-9
-8 -36 -10 -30 -2 2 4 11 8 20 8 8 0 13 -3 10 -6z m32 -5 c-4 -9 1 -17 11 -20
13 -4 13 -4 -2 -3 -19 2 -33 37 -14 37 6 0 8 -6 5 -14z m-37 -20 c0 -2 -8 -10
-17 -17 -16 -13 -17 -12 -4 4 13 16 21 21 21 13z m6 -34 c-17 -16 -18 -16 -5
5 7 12 15 20 18 17 3 -2 -3 -12 -13 -22z m49 8 c-3 -5 -12 -10 -18 -10 -7 0
-6 4 3 10 19 12 23 12 15 0z m-15 -32 c0 -9 4 -8 10 2 5 8 10 11 10 5 0 -5 -4
-16 -9 -23 -6 -11 -10 -10 -15 4 -6 16 -8 15 -29 -2 l-22 -19 19 23 c21 24 36
29 36 10z m-14 -47 c0 -11 -5 -17 -13 -14 -10 4 -11 9 -2 19 15 18 15 18 15
-5z m-45 -14 c-6 -8 -7 -18 -3 -22 4 -5 1 -5 -6 -1 -10 6 -10 11 -1 22 6 8 14
14 16 14 3 0 0 -6 -6 -13z m33 -16 c3 -5 -2 -15 -12 -22 -15 -12 -16 -12 -5 2
7 9 10 19 6 22 -3 4 -4 7 0 7 3 0 8 -4 11 -9z m30 -52 c10 -19 12 -37 7 -46
-7 -13 -9 -13 -14 1 -5 11 -3 15 4 10 7 -4 10 -1 7 7 -3 8 -10 13 -16 12 -5
-1 -16 5 -24 15 -12 16 -11 16 6 2 18 -14 19 -13 14 8 -8 31 -2 28 16 -9z
m-24 -33 c0 -2 -8 -10 -17 -17 -16 -13 -17 -12 -4 4 13 16 21 21 21 13z m6
-45 c0 -11 -5 -17 -13 -14 -10 4 -11 9 -2 19 15 18 15 18 15 -5z m-45 -14 c-6
-8 -7 -18 -3 -22 4 -5 1 -5 -6 -1 -10 6 -10 11 -1 22 6 8 14 14 16 14 3 0 0
-6 -6 -13z m33 -16 c3 -5 -2 -15 -12 -22 -15 -12 -16 -12 -5 2 7 9 10 19 6 22
-3 4 -4 7 0 7 3 0 8 -4 11 -9z m43 -17 c-3 -3 -12 -4 -19 -1 -8 3 -5 6 6 6 11
1 17 -2 13 -5z m-6 -31 c7 -10 9 -15 5 -11 -5 4 -15 3 -23 -3 -9 -9 -13 -8
-13 0 0 6 6 11 13 11 8 0 7 4 -3 10 -8 5 -10 10 -4 10 6 0 18 -8 25 -17z m-57
-43 c-6 -6 -10 -3 -10 10 0 13 4 16 10 10 7 -7 7 -13 0 -20z m1307 -147 c13
-16 12 -17 -3 -4 -17 13 -22 21 -14 21 2 0 10 -8 17 -17z m-31 -17 c0 -2 -8
-10 -17 -17 -16 -13 -17 -12 -4 4 13 16 21 21 21 13z m26 -22 c1 -9 0 -13 -3
-10 -4 3 -13 0 -22 -6 -12 -10 -12 -7 2 8 9 11 15 24 12 27 -3 4 -2 5 2 2 4
-3 8 -13 9 -21z m5 -48 c-5 -6 -7 -19 -6 -28 2 -10 0 -20 -4 -22 -4 -3 -7 10
-7 28 0 20 5 33 13 33 8 0 9 -5 4 -11z m-31 -52 c0 -8 -19 -13 -24 -6 -3 5 1
9 9 9 8 0 15 -2 15 -3z m63 -88 c-4 -6 -8 -5 -11 2 -2 7 -7 10 -11 8 -4 -3 -8
1 -8 8 0 11 4 12 18 3 10 -6 15 -16 12 -21z m-63 8 c0 -8 -19 -13 -24 -6 -3 5
1 9 9 9 8 0 15 -2 15 -3z m-17 -59 c-3 -9 -8 -14 -10 -11 -3 3 -2 9 2 15 9 16
15 13 8 -4z m84 -61 c-3 -3 -12 -4 -19 -1 -8 3 -5 6 6 6 11 1 17 -2 13 -5z
m-57 -8 c0 -2 -8 -10 -17 -17 -16 -13 -17 -12 -4 4 13 16 21 21 21 13z m-1823
-34 c-1 -16 -7 -29 -14 -29 -7 0 -9 5 -5 11 7 11 8 16 11 36 3 22 9 8 8 -18z
m83 24 c0 -2 -7 -7 -16 -10 -8 -3 -12 -2 -9 4 6 10 25 14 25 6z m77 -3 c-4 -3
-2 -11 3 -18 7 -8 5 -12 -4 -12 -8 0 -12 7 -11 16 5 22 4 21 12 21 3 0 3 -3 0
-7z m134 -10 c13 -17 13 -17 -6 -3 -11 8 -22 16 -24 17 -2 2 0 3 6 3 6 0 17
-8 24 -17z m106 10 c-4 -3 -1 -13 6 -22 11 -14 10 -14 -5 -2 -21 15 -23 31 -6
31 6 0 8 -3 5 -7z m80 0 c-4 -3 -2 -11 3 -18 7 -8 5 -12 -4 -12 -8 0 -12 7
-11 16 5 22 4 21 12 21 3 0 3 -3 0 -7z m134 -10 c13 -17 13 -17 -6 -3 -11 8
-22 16 -24 17 -2 2 0 3 6 3 6 0 17 -8 24 -17z m109 13 c0 -2 -7 -7 -16 -10 -8
-3 -12 -2 -9 4 6 10 25 14 25 6z m116 -32 c1 -9 -1 -13 -4 -9 -4 4 -7 10 -7
13 0 4 -4 14 -9 22 -7 12 -6 13 4 3 8 -7 15 -20 16 -29z m121 29 c-4 -3 -1
-13 6 -22 11 -14 10 -14 -5 -2 -16 12 -16 31 -1 31 4 0 3 -3 0 -7z m134 -10
c13 -17 13 -17 -6 -3 -11 8 -22 16 -24 17 -2 2 0 3 6 3 6 0 17 -8 24 -17z
m106 10 c-4 -3 -1 -13 6 -22 11 -14 10 -14 -5 -2 -21 15 -23 31 -6 31 6 0 8
-3 5 -7z m119 -29 c1 -9 -1 -13 -4 -9 -4 4 -7 10 -7 13 0 4 -4 14 -9 22 -7 12
-6 13 4 3 8 -7 15 -20 16 -29z m79 18 c-3 -3 -11 0 -18 7 -9 10 -8 11 6 5 10
-3 15 -9 12 -12z m96 1 c13 -17 13 -17 -6 -3 -11 8 -22 16 -24 17 -2 2 0 3 6
3 6 0 17 -8 24 -17z m160 0 c13 -17 13 -17 -6 -3 -11 8 -22 16 -24 17 -2 2 0
3 6 3 6 0 17 -8 24 -17z m103 9 c3 -5 -1 -9 -9 -9 -8 0 -12 4 -9 9 3 4 7 8 9
8 2 0 6 -4 9 -8z m-1714 -6 c0 -2 -8 -10 -17 -17 -16 -13 -17 -12 -4 4 13 16
21 21 21 13z m79 -9 c8 -10 7 -14 -2 -14 -8 0 -14 6 -14 14 0 7 1 13 2 13 2 0
8 -6 14 -13z m80 0 c8 -10 7 -14 -2 -14 -8 0 -14 6 -14 14 0 7 1 13 2 13 2 0
8 -6 14 -13z m36 -15 c-1 -9 2 -24 8 -32 9 -12 9 -13 -3 -2 -15 13 -23 65 -9
57 4 -3 6 -13 4 -23z m204 15 c8 -10 7 -14 -2 -14 -8 0 -14 6 -14 14 0 7 1 13
2 13 2 0 8 -6 14 -13z m80 0 c8 -10 7 -14 -2 -14 -8 0 -14 6 -14 14 0 7 1 13
2 13 2 0 8 -6 14 -13z m36 -15 c-1 -9 2 -24 8 -32 9 -12 9 -13 -3 -2 -15 13
-23 65 -9 57 4 -3 6 -13 4 -23z m125 24 c0 -2 -8 -10 -17 -17 -16 -13 -17 -12
-4 4 13 16 21 21 21 13z m79 -9 c8 -10 7 -14 -2 -14 -8 0 -14 6 -14 14 0 7 1
13 2 13 2 0 8 -6 14 -13z m40 0 c8 -10 7 -14 -2 -14 -8 0 -14 6 -14 14 0 7 1
13 2 13 2 0 8 -6 14 -13z m200 0 c8 -10 7 -14 -2 -14 -8 0 -14 6 -14 14 0 7 1
13 2 13 2 0 8 -6 14 -13z m36 -15 c-1 -9 2 -24 8 -32 9 -12 9 -13 -3 -2 -15
13 -23 65 -9 57 4 -3 6 -13 4 -23z m204 15 c8 -10 7 -14 -2 -14 -8 0 -14 6
-14 14 0 7 1 13 2 13 2 0 8 -6 14 -13z m40 0 c8 -10 7 -14 -2 -14 -8 0 -14 6
-14 14 0 7 1 13 2 13 2 0 8 -6 14 -13z m281 9 c0 -2 -8 -10 -17 -17 -16 -13
-17 -12 -4 4 13 16 21 21 21 13z m160 0 c0 -2 -8 -10 -17 -17 -16 -13 -17 -12
-4 4 13 16 21 21 21 13z m-1428 -31 c2 3 5 -2 5 -10 0 -10 -4 -12 -12 -5 -7 5
-16 6 -21 2 -5 -4 -6 -3 -2 2 4 5 2 16 -4 25 -10 12 -7 12 8 -2 11 -9 23 -15
26 -12z m320 0 c2 3 5 -2 5 -10 0 -10 -4 -12 -12 -5 -7 5 -16 6 -21 2 -5 -4
-6 -3 -2 2 4 5 2 16 -4 25 -10 12 -7 12 8 -2 11 -9 23 -15 26 -12z m274 13 c3
-4 -1 -5 -10 -4 -8 1 -18 5 -22 8 -3 4 1 5 10 4 8 -1 18 -5 22 -8z m206 -13
c2 3 5 -2 5 -10 0 -10 -4 -12 -12 -5 -7 5 -16 6 -21 2 -5 -4 -6 -3 -2 2 4 5 2
16 -4 25 -10 12 -7 12 8 -2 11 -9 23 -15 26 -12z m274 13 c3 -4 -1 -5 -10 -4
-8 1 -18 5 -22 8 -3 4 1 5 10 4 8 -1 18 -5 22 -8z m74 8 c0 -2 -7 -7 -16 -10
-8 -3 -12 -2 -9 4 6 10 25 14 25 6z m31 -13 c13 -16 12 -17 -3 -4 -10 7 -18
15 -18 17 0 8 8 3 21 -13z m160 0 c13 -16 12 -17 -3 -4 -17 13 -22 21 -14 21
2 0 10 -8 17 -17z m-1575 -8 c-1 -8 -5 -17 -8 -21 -5 -4 -4 16 1 34 3 9 9 -1
7 -13z m320 -11 c1 -9 0 -13 -4 -10 -3 4 -7 14 -8 22 -1 9 0 13 4 10 3 -4 7
-14 8 -22z m320 11 c-1 -8 -5 -17 -8 -21 -5 -4 -4 16 1 34 3 9 9 -1 7 -13z
m245 -2 c13 -16 12 -17 -3 -4 -10 7 -18 15 -18 17 0 8 8 3 21 -13z m235 -9 c1
-9 0 -13 -4 -10 -3 4 -7 14 -8 22 -1 9 0 13 4 10 3 -4 7 -14 8 -22z m394 11
c-7 -8 -17 -15 -23 -15 -6 0 -2 7 9 15 25 19 30 19 14 0z m160 0 c-7 -8 -17
-15 -23 -15 -6 0 -2 7 9 15 25 19 30 19 14 0z m37 -3 c-10 -10 -15 -21 -12
-24 3 -2 -2 -5 -10 -5 -12 0 -10 6 7 24 25 27 39 32 15 5z m-316 -9 c13 -16
12 -17 -3 -4 -17 13 -22 21 -14 21 2 0 10 -8 17 -17z m160 0 c13 -16 12 -17
-3 -4 -17 13 -22 21 -14 21 2 0 10 -8 17 -17z m-690 -10 c13 -16 12 -17 -3 -4
-10 7 -18 15 -18 17 0 8 8 3 21 -13z m879 13 c0 -2 -8 -10 -17 -17 -16 -13
-17 -12 -4 4 13 16 21 21 21 13z m-1719 -19 c-6 -8 -7 -18 -3 -22 4 -5 1 -5
-6 -1 -10 6 -10 11 -1 22 6 8 14 14 16 14 3 0 0 -6 -6 -13z m49 8 c0 -1 -10
-10 -22 -21 -14 -12 -18 -13 -10 -3 6 9 10 18 7 21 -3 2 2 5 10 5 8 0 15 -1
15 -2z m229 -29 c-3 -3 -11 5 -18 17 -13 21 -12 21 5 5 10 -10 16 -20 13 -22z
m76 26 c-3 -3 0 -11 6 -19 17 -20 5 -16 -14 5 -15 16 -15 19 -2 19 8 0 13 -3
10 -5z m286 -5 c-6 -8 -7 -18 -3 -22 4 -5 1 -5 -6 -1 -10 6 -10 11 -1 22 6 8
14 14 16 14 3 0 0 -6 -6 -13z m49 8 c0 -1 -10 -10 -22 -21 -14 -12 -18 -13
-10 -3 6 9 10 18 7 21 -3 2 2 5 10 5 8 0 15 -1 15 -2z m389 -29 c-3 -3 -11 5
-18 17 -13 21 -12 21 5 5 10 -10 16 -20 13 -22z m76 26 c-3 -3 0 -11 6 -19 17
-20 5 -16 -14 5 -15 16 -15 19 -2 19 8 0 13 -3 10 -5z m34 -6 c9 -11 9 -16 -1
-22 -7 -4 -10 -4 -6 1 4 4 3 14 -3 22 -6 7 -9 13 -6 13 2 0 10 -6 16 -14z
m257 2 c3 -4 -1 -5 -10 -4 -8 1 -18 5 -22 8 -3 4 1 5 10 4 8 -1 18 -5 22 -8z
m160 0 c3 -4 -1 -5 -10 -4 -8 1 -18 5 -22 8 -3 4 1 5 10 4 8 -1 18 -5 22 -8z
m-1493 -45 c-7 -3 -13 -9 -13 -14 0 -6 5 -7 12 -3 6 4 8 3 4 -4 -6 -11 -44 -8
-55 4 -3 4 1 5 9 2 8 -3 20 2 27 11 9 13 8 20 -5 36 -9 12 -6 10 8 -4 17 -16
21 -25 13 -28z m100 33 c3 3 4 -1 3 -10 -1 -8 -5 -18 -9 -21 -4 -3 -5 -2 -2 2
3 3 -3 16 -12 27 -14 15 -14 18 -2 8 9 -6 18 -9 22 -6z m219 -33 c-6 -3 -10
-8 -8 -12 3 -4 -1 -8 -9 -8 -13 0 -13 2 0 17 13 14 13 18 0 33 -8 9 -5 8 8 -4
15 -15 18 -23 9 -26z m101 33 c3 3 4 -1 3 -10 -1 -8 -5 -18 -9 -21 -4 -3 -5
-2 -2 2 3 3 -3 16 -12 27 -14 15 -14 18 -2 8 9 -6 18 -9 22 -6z m286 1 c8 -10
7 -14 -2 -14 -8 0 -14 6 -14 14 0 7 1 13 2 13 2 0 8 -6 14 -13z m93 -34 c-6
-3 -10 -8 -8 -12 3 -4 -1 -8 -9 -8 -13 0 -13 2 0 17 13 14 13 18 0 33 -8 9 -5
8 8 -4 15 -15 18 -23 9 -26z m101 33 c3 3 4 -1 3 -10 -1 -8 -5 -18 -9 -21 -4
-3 -5 -2 -2 2 3 3 -3 16 -12 27 -14 15 -14 18 -2 8 9 -6 18 -9 22 -6z m724 -6
c1 -11 -2 -22 -8 -25 -5 -4 -6 2 -2 11 5 13 3 15 -8 9 -12 -8 -12 -6 0 8 17
21 16 21 18 -3z m-1676 -3 c-6 -8 -7 -18 -3 -22 4 -5 1 -5 -6 -1 -10 6 -10 11
-1 22 6 8 14 14 16 14 3 0 0 -6 -6 -13z m646 2 c-9 -6 -14 -15 -11 -21 4 -7 2
-8 -5 -4 -14 9 3 36 23 36 6 0 3 -5 -7 -11z m424 -6 c13 -16 12 -17 -3 -4 -10
7 -18 15 -18 17 0 8 8 3 21 -13z m265 2 c-3 -8 2 -19 12 -24 9 -6 12 -11 7
-11 -17 0 -34 21 -28 36 3 8 7 14 10 14 3 0 3 -7 -1 -15z m160 0 c-3 -8 2 -19
12 -24 9 -6 12 -11 7 -11 -17 0 -34 21 -28 36 3 8 7 14 10 14 3 0 3 -7 -1 -15z
m-1640 -4 c-3 -4 3 -16 13 -25 13 -12 21 -14 26 -6 3 5 11 7 17 4 8 -5 9 -1 4
12 -5 14 -4 16 5 7 12 -12 3 -37 -11 -28 -5 3 -11 1 -14 -4 -8 -13 -42 -6 -38
8 3 15 -11 14 -27 -1 -8 -7 -6 -1 4 15 9 15 19 27 22 27 2 0 2 -4 -1 -9z m484
-12 c0 -5 -4 -9 -8 -9 -5 0 -9 7 -9 15 0 8 4 12 9 9 4 -3 8 -9 8 -15z m1055 0
c-4 -5 -12 -9 -18 -8 -9 0 -8 2 1 6 6 2 9 10 6 15 -4 7 -2 8 5 4 6 -4 9 -12 6
-17z m160 0 c-4 -5 -12 -9 -18 -8 -9 0 -8 2 1 6 6 2 9 10 6 15 -4 7 -2 8 5 4
6 -4 9 -12 6 -17z m-1655 7 c0 -3 -4 -8 -10 -11 -5 -3 -10 -1 -10 4 0 6 5 11
10 11 6 0 10 -2 10 -4z m640 0 c0 -3 -4 -8 -10 -11 -5 -3 -10 -1 -10 4 0 6 5
11 10 11 6 0 10 -2 10 -4z m28 -21 c-3 -3 -9 2 -12 12 -6 14 -5 15 5 6 7 -7
10 -15 7 -18z m97 15 c-3 -5 -1 -10 4 -10 6 0 11 -5 11 -11 0 -8 -5 -8 -15 1
-13 11 -12 30 1 30 3 0 2 -4 -1 -10z m35 0 c0 -5 -2 -10 -4 -10 -3 0 -8 5 -11
10 -3 6 -1 10 4 10 6 0 11 -4 11 -10z m83 -7 c-4 -10 -2 -14 5 -9 6 3 14 1 18
-5 4 -7 3 -9 -4 -5 -6 3 -13 2 -17 -4 -12 -19 -26 0 -15 21 13 23 22 25 13 2z
m37 7 c0 -5 -2 -10 -4 -10 -3 0 -8 5 -11 10 -3 6 -1 10 4 10 6 0 11 -4 11 -10z
m327 3 c-4 -3 1 -12 11 -20 12 -10 13 -13 2 -11 -24 5 -40 22 -26 30 14 10 22
10 13 1z m33 -3 c0 -5 -2 -10 -4 -10 -3 0 -8 5 -11 10 -3 6 -1 10 4 10 6 0 11
-4 11 -10z m113 -7 c-4 -9 0 -11 13 -7 11 4 16 4 13 0 -11 -12 -48 -15 -55 -4
-5 7 -2 8 6 3 9 -6 12 -4 8 7 -4 8 -1 15 7 15 7 0 11 -6 8 -14z m-1319 -6 c14
-10 15 -14 4 -14 -7 0 -19 6 -26 14 -7 7 -9 13 -4 13 4 0 16 -6 26 -13z m153
-9 c-3 -8 -6 -5 -6 6 -1 11 2 17 5 13 3 -3 4 -12 1 -19z m98 10 c-24 -15 -65
-18 -65 -6 0 4 11 6 25 4 13 -3 27 0 30 5 4 5 12 9 18 9 7 0 3 -6 -8 -12z
m389 -1 c14 -10 15 -14 4 -14 -7 0 -19 6 -26 14 -7 7 -9 13 -4 13 4 0 16 -6
26 -13z m109 0 c3 -8 -1 -14 -8 -14 -7 0 -11 6 -8 14 3 7 6 13 8 13 2 0 5 -6
8 -13z m31 -2 c-4 -8 -8 -15 -10 -15 -2 0 -4 7 -4 15 0 8 4 15 10 15 5 0 7 -7
4 -15z m360 -1 c3 -8 2 -12 -3 -9 -5 3 -12 1 -15 -4 -8 -13 -39 -7 -44 8 -3 8
5 10 22 7 14 -3 26 0 26 5 0 14 7 11 14 -7z m89 3 c3 -8 -1 -14 -8 -14 -7 0
-11 6 -8 14 3 7 6 13 8 13 2 0 5 -6 8 -13z m221 0 c-3 -8 -12 -14 -21 -14 -13
0 -13 2 3 14 10 7 19 13 21 13 1 0 0 -6 -3 -13z m160 0 c-3 -8 -12 -14 -21
-14 -13 0 -13 2 3 14 10 7 19 13 21 13 1 0 0 -6 -3 -13z m-1494 -1 c0 -3 -4
-8 -10 -11 -5 -3 -10 -1 -10 4 0 6 5 11 10 11 6 0 10 -2 10 -4z m320 -4 c0 -5
-7 -9 -15 -9 -8 0 -12 4 -9 9 3 4 9 8 15 8 5 0 9 -4 9 -8z m480 0 c0 -5 -7 -9
-15 -9 -8 0 -12 4 -9 9 3 4 9 8 15 8 5 0 9 -4 9 -8z m360 0 c0 -5 -7 -9 -15
-9 -8 0 -12 4 -9 9 3 4 9 8 15 8 5 0 9 -4 9 -8z m214 -7 c-10 -7 -22 -11 -27
-8 -12 7 0 19 23 20 21 2 21 1 4 -12z"/>
<path d="M3670 3680 c0 -5 5 -10 11 -10 5 0 7 5 4 10 -3 6 -8 10 -11 10 -2 0
-4 -4 -4 -10z"/>
<path d="M2376 3613 c-6 -14 -5 -15 5 -6 7 7 10 15 7 18 -3 3 -9 -2 -12 -12z"/>
<path d="M2575 3331 c-3 -5 -2 -12 3 -15 5 -3 9 1 9 9 0 17 -3 19 -12 6z"/>
<path d="M3670 3200 c0 -5 5 -10 11 -10 5 0 7 5 4 10 -3 6 -8 10 -11 10 -2 0
-4 -4 -4 -10z"/>
<path d="M2619 3058 c-6 -21 -5 -38 2 -38 5 0 9 5 9 11 0 5 6 7 13 3 8 -5 8
-2 -2 9 -12 16 -20 21 -22 15z"/>
<path d="M2624 2808 c-11 -18 -13 -59 -3 -52 6 3 8 11 6 17 -2 7 0 20 5 30 10
19 3 24 -8 5z"/>
<path d="M3670 2720 c0 -5 5 -10 11 -10 5 0 7 5 4 10 -3 6 -8 10 -11 10 -2 0
-4 -4 -4 -10z"/>
<path d="M2571 2645 c0 -5 3 -16 8 -23 7 -11 9 -10 14 3 4 9 3 14 -2 10 -5 -3
-12 1 -14 7 -3 7 -6 9 -6 3z"/>
<path d="M2550 2576 c0 -2 7 -7 16 -10 8 -3 12 -2 9 4 -6 10 -25 14 -25 6z"/>
<path d="M2523 2520 c1 -20 17 -29 17 -10 0 5 6 7 14 4 8 -3 17 0 22 7 4 8 3
10 -4 5 -6 -4 -20 -2 -31 4 -17 8 -20 7 -18 -10z"/>
<path d="M2505 2481 c-2 -5 7 -8 20 -8 14 0 25 2 25 6 0 10 -39 11 -45 2z"/>
<path d="M2488 2446 c-17 -12 -19 -39 -4 -53 4 -4 6 -1 4 7 -1 8 3 14 10 13 6
-2 11 3 10 10 -2 6 3 11 10 10 6 -2 12 1 12 6 0 15 -25 19 -42 7z m22 0 c0 -2
-8 -10 -17 -17 -16 -13 -17 -12 -4 4 13 16 21 21 21 13z"/>
<path d="M2415 2300 c-3 -5 -1 -10 4 -10 6 0 11 5 11 10 0 6 -2 10 -4 10 -3 0
-8 -4 -11 -10z"/>
<path d="M2345 2261 c-3 -5 0 -13 6 -17 7 -4 9 -3 5 4 -3 5 0 13 6 15 9 4 10
6 1 6 -6 1 -14 -3 -18 -8z"/>
<path d="M2286 2222 c-2 -4 -1 -14 5 -22 5 -8 9 -11 9 -6 0 5 6 5 13 0 7 -5 5
-2 -5 7 -9 9 -14 19 -11 23 4 3 4 6 0 6 -3 0 -8 -4 -11 -8z"/>
<path d="M2180 2139 c-7 -11 -9 -23 -6 -27 3 -3 6 0 6 6 0 7 7 12 15 12 17 0
20 16 6 25 -6 3 -15 -4 -21 -16z"/>
<path d="M2031 2077 c-7 -9 -7 -17 1 -27 8 -13 9 -12 4 2 -3 12 2 18 17 20 18
3 19 4 5 10 -9 4 -21 1 -27 -5z"/>
<path d="M3670 2080 c0 -5 5 -10 11 -10 5 0 7 5 4 10 -3 6 -8 10 -11 10 -2 0
-4 -4 -4 -10z"/>
<path d="M1995 2051 c-3 -5 -2 -12 3 -15 5 -3 9 1 9 9 0 17 -3 19 -12 6z"/>
<path d="M1966 2037 c3 -10 9 -15 12 -12 3 3 0 11 -7 18 -10 9 -11 8 -5 -6z"/>
<path d="M1071 1979 c-13 -11 -22 -22 -19 -24 3 -3 11 1 18 10 9 11 17 12 32
4 15 -8 19 -8 14 0 -4 6 -1 11 6 11 9 0 9 3 -2 10 -20 13 -21 13 -49 -11z"/>
<path d="M1515 1960 c-3 -5 -1 -10 4 -10 6 0 11 5 11 10 0 6 -2 10 -4 10 -3 0
-8 -4 -11 -10z"/>
<path d="M989 1908 c-8 -26 -4 -40 14 -49 19 -9 20 -8 6 3 -21 17 -24 29 -7
39 10 7 10 9 1 9 -7 0 -13 -1 -14 -2z"/>
<path d="M4910 1338 c0 -4 7 -8 15 -8 8 0 15 4 15 8 0 5 -7 9 -15 9 -8 0 -15
-4 -15 -9z"/>
<path d="M4916 1281 c-4 -5 -2 -12 4 -16 5 -3 10 -3 10 2 0 4 5 1 10 -7 5 -8
10 -10 10 -4 0 17 -27 37 -34 25z"/>
<path d="M1015 1180 c-3 -5 -1 -10 4 -10 6 0 11 5 11 10 0 6 -2 10 -4 10 -3 0
-8 -4 -11 -10z"/>
<path d="M2968 1013 c7 -3 16 -2 19 1 4 3 -2 6 -13 5 -11 0 -14 -3 -6 -6z"/>
<path d="M4199 948 c15 -21 31 -23 31 -6 0 6 -3 8 -7 5 -3 -4 -13 -1 -22 6
-14 11 -14 10 -2 -5z"/>
<path d="M4905 940 c-3 -6 1 -7 9 -4 18 7 21 14 7 14 -6 0 -13 -4 -16 -10z"/>
<path d="M475 920 c3 -5 8 -10 11 -10 2 0 4 5 4 10 0 6 -5 10 -11 10 -5 0 -7
-4 -4 -10z"/>
</g>
</svg>
